#N canvas 0 23 1440 855 10;
#X obj 475 48 loadbang;
#X obj 27 53 inlet~;
#X obj 509 217 pack f f;
#X msg 509 241 set \$1 \$2;
#X msg 479 319 resize \$1;
#X obj 31 166 bang~;
#X obj 30 275 /;
#X obj 30 367 outlet;
#X obj 475 160 \$1;
#X obj 502 160 \$2;
#X obj 475 68 t b b;
#X obj 509 261 switch~;
#X obj 646 94 route set;
#X obj 645 114 unpack;
#X obj 646 73 inlet;
#X obj 30 316 sqrt;
#X obj 27 102 *~;
#X obj 479 368 table \$0-one;
#X obj 479 344 s \$0-one;
#X obj 31 188 array sum \$0-one;
#X obj 27 124 tabsend~ \$0-one;
#X text 71 52 <-- sinal de entrada;
#X text 533 159 <-- overlap;
#X text 346 160 tamanho da janela -->;
#X text 128 124 <-- energia do sinal;
#X text 138 188 <-- somatória da energia do sinal;
#X text 66 273 <-- energia média;
#X text 66 316 <-- raíz quadrada da energia média;
#X text 74 366 <-- RMS;
#X connect 0 0 10 0;
#X connect 1 0 16 1;
#X connect 1 0 16 0;
#X connect 2 0 3 0;
#X connect 3 0 11 0;
#X connect 4 0 18 0;
#X connect 5 0 19 0;
#X connect 6 0 15 0;
#X connect 8 0 2 0;
#X connect 8 0 6 1;
#X connect 8 0 4 0;
#X connect 9 0 2 1;
#X connect 10 0 8 0;
#X connect 10 1 9 0;
#X connect 12 0 13 0;
#X connect 12 1 11 0;
#X connect 13 0 8 0;
#X connect 13 1 9 0;
#X connect 14 0 12 0;
#X connect 15 0 7 0;
#X connect 16 0 20 0;
#X connect 19 0 6 0;
