#N canvas 0 23 1440 855 12;
#N canvas 0 23 743 578 read-sounds 0;
#X msg 253 350 bang;
#X obj 247 377 openpanel;
#X obj 60 381 openpanel;
#X msg 66 354 bang;
#X msg 59 404 \; sample1 read \$1 28 \; sample3 read \$1 28 \;;
#X msg 246 400 \; sample2 read \$1 28 \; sample4 read \$1 28 \;;
#X obj 479 364 soundfiler;
#X obj 277 76 r read-sample5;
#X obj 424 78 r read-sample6;
#X obj 569 76 r read-sample7;
#X obj 100 200 r write-sample1;
#X obj 259 201 r write-sample2;
#X obj 580 204 r read-sample8;
#X msg 580 257 read \$1 sample8;
#X msg 277 134 read \$1 sample5;
#X msg 424 135 read \$1 sample6;
#X msg 569 134 read \$1 sample7;
#X msg 260 264 write \$1 sample2;
#X msg 100 256 write \$1 sample1;
#X obj 100 227 symbol;
#X obj 260 239 symbol;
#X obj 277 107 symbol;
#X obj 423 107 symbol;
#X obj 569 106 symbol;
#X obj 580 231 symbol;
#X obj 448 452 savepanel;
#X obj 448 425 r save-sample1;
#X msg 448 481 write \$1 sample1;
#X obj 603 452 savepanel;
#X msg 603 481 write \$1 sample1;
#X obj 603 425 r save-sample2;
#X connect 0 0 1 0;
#X connect 1 0 5 0;
#X connect 2 0 4 0;
#X connect 3 0 2 0;
#X connect 7 0 21 0;
#X connect 8 0 22 0;
#X connect 9 0 23 0;
#X connect 10 0 19 0;
#X connect 11 0 20 0;
#X connect 12 0 24 0;
#X connect 13 0 6 0;
#X connect 14 0 6 0;
#X connect 15 0 6 0;
#X connect 16 0 6 0;
#X connect 17 0 6 0;
#X connect 18 0 6 0;
#X connect 19 0 18 0;
#X connect 20 0 17 0;
#X connect 21 0 14 0;
#X connect 22 0 15 0;
#X connect 23 0 16 0;
#X connect 24 0 13 0;
#X connect 25 0 27 0;
#X connect 26 0 25 0;
#X connect 27 0 6 0;
#X connect 28 0 29 0;
#X connect 29 0 6 0;
#X connect 30 0 28 0;
#X restore 10 253 pd read-sounds;
#X obj 11 298 table sample1 92610;
#X obj 11 319 table sample2 92610;
#X obj 10 339 table sample3 92610;
#X obj 11 359 table sample4 92610;
#X obj 10 403 table sample6 92610;
#X obj 9 423 table sample7 92610;
#X obj 10 443 table sample8 92610;
#X obj 10 382 table sample5 92610;
#X obj 13 489 loadbang;
#X msg 13 513 \; sample1 resize 92610 \; sample2 resize 92610 \; sample3
resize 92610 \; sample4 resize 92610 \; sample5 resize 92610 \; sample6
resize 92610 \; sample7 resize 92610 \; sample8 resize 92610;
#X obj 10 462 table sample9 92610;
#X floatatom 1018 193 0 0 0 0 - - -;
#X msg 1246 362 bang;
#X msg 1227 333 bang;
#X msg 1206 302 bang;
#X msg 1184 274 bang;
#X obj 1185 242 sel 1 2 3 4;
#X msg 1288 226 \; frog2-sampno \$1;
#X obj 1213 150 int;
#X obj 1143 152 int;
#X msg 1214 102 bang;
#X obj 1214 80 r trec2~;
#X floatatom 1143 202 0 0 0 0 - - -;
#X floatatom 1213 201 0 0 0 0 - - -;
#X obj 1143 93 r trec~;
#X msg 1143 116 bang;
#X obj 1056 144 + 1;
#X obj 1056 169 & 1;
#X obj 1298 139 + 1;
#X obj 1298 164 & 1;
#X obj 1143 176 + 1;
#X obj 1212 174 + 3;
#X msg 1058 232 \; frog1-sampno \$1;
#X msg 1293 278 \; frog1-sampno 1;
#X obj 936 329 tabwrite~ sample1;
#X obj 935 358 tabwrite~ sample2;
#X obj 936 388 tabwrite~ sample3;
#X obj 936 416 tabwrite~ sample4;
#N canvas 224 23 989 832 sample_control 0;
#X obj 108 306 % 100;
#X obj 108 283 + 1;
#X obj 210 109 t f f b;
#X text 333 79 duration;
#X obj 351 101 inlet;
#X text 166 70 pitch;
#X obj 209 69 inlet;
#X obj 488 73 inlet;
#X obj 23 383 +;
#X obj 45 308 * 100000;
#X obj 45 281 i;
#X obj 23 335 +;
#X obj 23 258 t f b;
#X obj 272 658 outlet;
#X obj 428 102 inlet;
#X obj 285 99 inlet;
#X text 271 78 velocity;
#X text 395 76 sample number;
#X text 480 40 packed notes -- pitch \, vel \, dur \, onset;
#X obj 430 300 * 1e+07;
#X obj 540 484 == 0;
#X floatatom 542 462 0 0 0 0 - - -;
#X obj 271 460 makenote;
#X obj 532 372 r nosteal;
#X msg 549 442 0;
#X obj 606 419 r reset;
#X msg 605 508 stop;
#X obj 208 596 poly 8 0;
#X obj 302 600 poly 8 1;
#X obj 272 634 pack 0 0 0 0 0 0;
#X obj 407 605 0;
#X obj 443 606 5;
#X obj 477 607 50;
#X obj 488 97 unpack 0 0 0 0 0 0;
#X obj 313 139 expr 2000*exp(0.0577 * (60. - 0.01 * $f1));
#X obj 336 188 min;
#X obj 97 149 fsplit 2100 10700;
#X obj 207 545 gate1;
#X obj 301 548 gate1;
#X obj 627 331 loadbang;
#X msg 628 360 1;
#X connect 0 0 10 1;
#X connect 1 0 0 0;
#X connect 2 0 36 0;
#X connect 2 1 34 0;
#X connect 2 2 32 0;
#X connect 2 2 31 0;
#X connect 2 2 30 0;
#X connect 4 0 35 1;
#X connect 6 0 2 0;
#X connect 7 0 33 0;
#X connect 8 0 22 0;
#X connect 9 0 11 1;
#X connect 10 0 9 0;
#X connect 10 0 1 0;
#X connect 11 0 8 0;
#X connect 12 0 11 0;
#X connect 12 1 10 0;
#X connect 14 0 19 0;
#X connect 15 0 22 1;
#X connect 19 0 8 1;
#X connect 20 0 38 0;
#X connect 21 0 20 0;
#X connect 21 0 37 0;
#X connect 22 0 37 1;
#X connect 22 0 38 1;
#X connect 22 1 27 1;
#X connect 22 1 28 1;
#X connect 23 0 21 0;
#X connect 24 0 21 0;
#X connect 25 0 26 0;
#X connect 25 0 24 0;
#X connect 26 0 27 0;
#X connect 26 0 28 0;
#X connect 27 0 29 0;
#X connect 27 1 29 2;
#X connect 27 2 29 1;
#X connect 28 0 29 0;
#X connect 28 1 29 2;
#X connect 28 2 29 1;
#X connect 29 0 13 0;
#X connect 30 0 29 3;
#X connect 31 0 29 4;
#X connect 32 0 29 5;
#X connect 33 0 36 0;
#X connect 33 1 22 1;
#X connect 33 2 22 2;
#X connect 33 3 29 3;
#X connect 33 4 29 4;
#X connect 33 5 29 5;
#X connect 34 0 35 0;
#X connect 35 0 22 2;
#X connect 36 0 12 0;
#X connect 37 0 27 0;
#X connect 38 0 28 0;
#X connect 39 0 40 0;
#X connect 40 0 21 0;
#X restore 493 141 pd sample_control;
#X obj 549 60 r frog1-dur;
#X obj 520 36 r frog1-vel;
#X obj 491 11 r frog1-pit;
#X obj 579 86 r frog1-sampno;
#X obj 609 109 r trev-note-1;
#N canvas 0 23 853 672 samp 0;
#X obj 174 87 t b;
#X obj 76 135 del 8;
#X obj 260 138 del 5;
#X text 278 49 velo \, pit \, onset;
#X obj 238 50 inlet;
#X obj 238 71 route 0;
#X msg 103 87 stop;
#X obj 76 165 i;
#X obj 76 188 * 0.003;
#X obj 145 209 pack 0 50;
#X obj 228 211 pack 0 4;
#X obj 76 210 pack 0 5;
#X obj 302 225 % 100000;
#X obj 302 248 * 0.01;
#X obj 343 166 i;
#X obj 302 273 mtof;
#X obj 302 296 expr 2616256/$f1;
#X obj 302 337 pack 0 0;
#X obj 178 405 *~;
#X obj 134 425 +~;
#X text 87 324 signal bus;
#X obj 178 380 line~;
#X obj 302 361 swap;
#X obj 441 313 + 10000;
#X obj 299 91 unpack 0 0 0 0 0;
#X obj 410 158 i;
#X obj 207 182 r reset;
#X obj 355 424 line~;
#X obj 355 448 tabread4~ sample1;
#X msg 433 398 set \$1;
#X obj 434 214 makefilename sample%d;
#X obj 135 347 inlet~;
#X obj 134 455 outlet~;
#X obj 434 192 div 1e+07;
#X obj 213 98 t b;
#X obj 337 193 t f f;
#X obj 519 324 samplerate~;
#X obj 517 350 * 0.001;
#X obj 299 395 *;
#X msg 585 352 44.1;
#X obj 516 294 t b;
#X obj 521 261 moses 5;
#X connect 0 0 9 0;
#X connect 1 0 7 0;
#X connect 1 0 14 0;
#X connect 2 0 25 0;
#X connect 4 0 5 0;
#X connect 5 0 6 0;
#X connect 5 0 0 0;
#X connect 5 1 24 0;
#X connect 6 0 1 0;
#X connect 6 0 2 0;
#X connect 7 0 8 0;
#X connect 8 0 11 0;
#X connect 9 0 21 0;
#X connect 10 0 21 0;
#X connect 11 0 21 0;
#X connect 12 0 13 0;
#X connect 13 0 15 0;
#X connect 14 0 35 0;
#X connect 15 0 16 0;
#X connect 16 0 17 0;
#X connect 17 0 22 0;
#X connect 18 0 19 1;
#X connect 19 0 32 0;
#X connect 21 0 18 0;
#X connect 22 0 38 0;
#X connect 22 1 27 1;
#X connect 23 0 17 1;
#X connect 24 0 7 1;
#X connect 24 0 34 0;
#X connect 24 1 14 1;
#X connect 24 2 25 1;
#X connect 24 3 11 1;
#X connect 24 4 9 1;
#X connect 25 0 23 0;
#X connect 25 0 38 0;
#X connect 26 0 10 0;
#X connect 27 0 28 0;
#X connect 28 0 18 1;
#X connect 29 0 28 0;
#X connect 30 0 29 0;
#X connect 31 0 19 0;
#X connect 33 0 30 0;
#X connect 33 0 41 0;
#X connect 34 0 1 0;
#X connect 34 0 2 0;
#X connect 34 0 10 0;
#X connect 35 0 12 0;
#X connect 35 1 33 0;
#X connect 36 0 37 0;
#X connect 37 0 38 1;
#X connect 38 0 27 0;
#X connect 39 0 38 1;
#X connect 40 0 36 0;
#X connect 41 0 40 0;
#X connect 41 1 39 0;
#X restore 389 192 pd samp sample1;
#X obj 493 164 route 1 2 3 4 5 6 7 8;
#N canvas 0 23 853 672 samp 0;
#X obj 174 87 t b;
#X obj 76 135 del 8;
#X obj 260 138 del 5;
#X text 278 49 velo \, pit \, onset;
#X obj 238 50 inlet;
#X obj 238 71 route 0;
#X msg 103 87 stop;
#X obj 76 165 i;
#X obj 76 188 * 0.003;
#X obj 145 209 pack 0 50;
#X obj 228 211 pack 0 4;
#X obj 76 210 pack 0 5;
#X obj 302 225 % 100000;
#X obj 302 248 * 0.01;
#X obj 343 166 i;
#X obj 302 273 mtof;
#X obj 302 296 expr 2616256/$f1;
#X obj 302 337 pack 0 0;
#X obj 178 405 *~;
#X obj 134 425 +~;
#X text 87 324 signal bus;
#X obj 178 380 line~;
#X obj 302 361 swap;
#X obj 441 313 + 10000;
#X obj 299 91 unpack 0 0 0 0 0;
#X obj 410 158 i;
#X obj 207 182 r reset;
#X obj 355 424 line~;
#X obj 355 448 tabread4~ sample1;
#X msg 433 398 set \$1;
#X obj 434 214 makefilename sample%d;
#X obj 135 347 inlet~;
#X obj 134 455 outlet~;
#X obj 434 192 div 1e+07;
#X obj 213 98 t b;
#X obj 337 193 t f f;
#X obj 519 324 samplerate~;
#X obj 517 350 * 0.001;
#X obj 299 395 *;
#X msg 585 352 44.1;
#X obj 516 294 t b;
#X obj 521 261 moses 5;
#X connect 0 0 9 0;
#X connect 1 0 7 0;
#X connect 1 0 14 0;
#X connect 2 0 25 0;
#X connect 4 0 5 0;
#X connect 5 0 6 0;
#X connect 5 0 0 0;
#X connect 5 1 24 0;
#X connect 6 0 1 0;
#X connect 6 0 2 0;
#X connect 7 0 8 0;
#X connect 8 0 11 0;
#X connect 9 0 21 0;
#X connect 10 0 21 0;
#X connect 11 0 21 0;
#X connect 12 0 13 0;
#X connect 13 0 15 0;
#X connect 14 0 35 0;
#X connect 15 0 16 0;
#X connect 16 0 17 0;
#X connect 17 0 22 0;
#X connect 18 0 19 1;
#X connect 19 0 32 0;
#X connect 21 0 18 0;
#X connect 22 0 38 0;
#X connect 22 1 27 1;
#X connect 23 0 17 1;
#X connect 24 0 7 1;
#X connect 24 0 34 0;
#X connect 24 1 14 1;
#X connect 24 2 25 1;
#X connect 24 3 11 1;
#X connect 24 4 9 1;
#X connect 25 0 23 0;
#X connect 25 0 38 0;
#X connect 26 0 10 0;
#X connect 27 0 28 0;
#X connect 28 0 18 1;
#X connect 29 0 28 0;
#X connect 30 0 29 0;
#X connect 31 0 19 0;
#X connect 33 0 30 0;
#X connect 33 0 41 0;
#X connect 34 0 1 0;
#X connect 34 0 2 0;
#X connect 34 0 10 0;
#X connect 35 0 12 0;
#X connect 35 1 33 0;
#X connect 36 0 37 0;
#X connect 37 0 38 1;
#X connect 38 0 27 0;
#X connect 39 0 38 1;
#X connect 40 0 36 0;
#X connect 41 0 40 0;
#X connect 41 1 39 0;
#X restore 389 218 pd samp sample1;
#N canvas 0 23 853 672 samp 0;
#X obj 174 87 t b;
#X obj 76 135 del 8;
#X obj 260 138 del 5;
#X text 278 49 velo \, pit \, onset;
#X obj 238 50 inlet;
#X obj 238 71 route 0;
#X msg 103 87 stop;
#X obj 76 165 i;
#X obj 76 188 * 0.003;
#X obj 145 209 pack 0 50;
#X obj 228 211 pack 0 4;
#X obj 76 210 pack 0 5;
#X obj 302 225 % 100000;
#X obj 302 248 * 0.01;
#X obj 343 166 i;
#X obj 302 273 mtof;
#X obj 302 296 expr 2616256/$f1;
#X obj 302 337 pack 0 0;
#X obj 178 405 *~;
#X obj 134 425 +~;
#X text 87 324 signal bus;
#X obj 178 380 line~;
#X obj 302 361 swap;
#X obj 441 313 + 10000;
#X obj 299 91 unpack 0 0 0 0 0;
#X obj 410 158 i;
#X obj 207 182 r reset;
#X obj 355 424 line~;
#X obj 355 448 tabread4~ sample1;
#X msg 433 398 set \$1;
#X obj 434 214 makefilename sample%d;
#X obj 135 347 inlet~;
#X obj 134 455 outlet~;
#X obj 434 192 div 1e+07;
#X obj 213 98 t b;
#X obj 337 193 t f f;
#X obj 519 324 samplerate~;
#X obj 517 350 * 0.001;
#X obj 299 395 *;
#X msg 585 352 44.1;
#X obj 516 294 t b;
#X obj 521 261 moses 5;
#X connect 0 0 9 0;
#X connect 1 0 7 0;
#X connect 1 0 14 0;
#X connect 2 0 25 0;
#X connect 4 0 5 0;
#X connect 5 0 6 0;
#X connect 5 0 0 0;
#X connect 5 1 24 0;
#X connect 6 0 1 0;
#X connect 6 0 2 0;
#X connect 7 0 8 0;
#X connect 8 0 11 0;
#X connect 9 0 21 0;
#X connect 10 0 21 0;
#X connect 11 0 21 0;
#X connect 12 0 13 0;
#X connect 13 0 15 0;
#X connect 14 0 35 0;
#X connect 15 0 16 0;
#X connect 16 0 17 0;
#X connect 17 0 22 0;
#X connect 18 0 19 1;
#X connect 19 0 32 0;
#X connect 21 0 18 0;
#X connect 22 0 38 0;
#X connect 22 1 27 1;
#X connect 23 0 17 1;
#X connect 24 0 7 1;
#X connect 24 0 34 0;
#X connect 24 1 14 1;
#X connect 24 2 25 1;
#X connect 24 3 11 1;
#X connect 24 4 9 1;
#X connect 25 0 23 0;
#X connect 25 0 38 0;
#X connect 26 0 10 0;
#X connect 27 0 28 0;
#X connect 28 0 18 1;
#X connect 29 0 28 0;
#X connect 30 0 29 0;
#X connect 31 0 19 0;
#X connect 33 0 30 0;
#X connect 33 0 41 0;
#X connect 34 0 1 0;
#X connect 34 0 2 0;
#X connect 34 0 10 0;
#X connect 35 0 12 0;
#X connect 35 1 33 0;
#X connect 36 0 37 0;
#X connect 37 0 38 1;
#X connect 38 0 27 0;
#X connect 39 0 38 1;
#X connect 40 0 36 0;
#X connect 41 0 40 0;
#X connect 41 1 39 0;
#X restore 389 242 pd samp sample1;
#N canvas 0 23 853 672 samp 0;
#X obj 174 87 t b;
#X obj 76 135 del 8;
#X obj 260 138 del 5;
#X text 278 49 velo \, pit \, onset;
#X obj 238 50 inlet;
#X obj 238 71 route 0;
#X msg 103 87 stop;
#X obj 76 165 i;
#X obj 76 188 * 0.003;
#X obj 145 209 pack 0 50;
#X obj 228 211 pack 0 4;
#X obj 76 210 pack 0 5;
#X obj 302 225 % 100000;
#X obj 302 248 * 0.01;
#X obj 343 166 i;
#X obj 302 273 mtof;
#X obj 302 296 expr 2616256/$f1;
#X obj 302 337 pack 0 0;
#X obj 178 405 *~;
#X obj 134 425 +~;
#X text 87 324 signal bus;
#X obj 178 380 line~;
#X obj 302 361 swap;
#X obj 441 313 + 10000;
#X obj 299 91 unpack 0 0 0 0 0;
#X obj 410 158 i;
#X obj 207 182 r reset;
#X obj 355 424 line~;
#X obj 355 448 tabread4~ sample1;
#X msg 433 398 set \$1;
#X obj 434 214 makefilename sample%d;
#X obj 135 347 inlet~;
#X obj 134 455 outlet~;
#X obj 434 192 div 1e+07;
#X obj 213 98 t b;
#X obj 337 193 t f f;
#X obj 519 324 samplerate~;
#X obj 517 350 * 0.001;
#X obj 299 395 *;
#X msg 585 352 44.1;
#X obj 516 294 t b;
#X obj 521 261 moses 5;
#X connect 0 0 9 0;
#X connect 1 0 7 0;
#X connect 1 0 14 0;
#X connect 2 0 25 0;
#X connect 4 0 5 0;
#X connect 5 0 6 0;
#X connect 5 0 0 0;
#X connect 5 1 24 0;
#X connect 6 0 1 0;
#X connect 6 0 2 0;
#X connect 7 0 8 0;
#X connect 8 0 11 0;
#X connect 9 0 21 0;
#X connect 10 0 21 0;
#X connect 11 0 21 0;
#X connect 12 0 13 0;
#X connect 13 0 15 0;
#X connect 14 0 35 0;
#X connect 15 0 16 0;
#X connect 16 0 17 0;
#X connect 17 0 22 0;
#X connect 18 0 19 1;
#X connect 19 0 32 0;
#X connect 21 0 18 0;
#X connect 22 0 38 0;
#X connect 22 1 27 1;
#X connect 23 0 17 1;
#X connect 24 0 7 1;
#X connect 24 0 34 0;
#X connect 24 1 14 1;
#X connect 24 2 25 1;
#X connect 24 3 11 1;
#X connect 24 4 9 1;
#X connect 25 0 23 0;
#X connect 25 0 38 0;
#X connect 26 0 10 0;
#X connect 27 0 28 0;
#X connect 28 0 18 1;
#X connect 29 0 28 0;
#X connect 30 0 29 0;
#X connect 31 0 19 0;
#X connect 33 0 30 0;
#X connect 33 0 41 0;
#X connect 34 0 1 0;
#X connect 34 0 2 0;
#X connect 34 0 10 0;
#X connect 35 0 12 0;
#X connect 35 1 33 0;
#X connect 36 0 37 0;
#X connect 37 0 38 1;
#X connect 38 0 27 0;
#X connect 39 0 38 1;
#X connect 40 0 36 0;
#X connect 41 0 40 0;
#X connect 41 1 39 0;
#X restore 389 265 pd samp sample1;
#N canvas 0 23 853 672 samp 0;
#X obj 174 87 t b;
#X obj 76 135 del 8;
#X obj 260 138 del 5;
#X text 278 49 velo \, pit \, onset;
#X obj 238 50 inlet;
#X obj 238 71 route 0;
#X msg 103 87 stop;
#X obj 76 165 i;
#X obj 76 188 * 0.003;
#X obj 145 209 pack 0 50;
#X obj 228 211 pack 0 4;
#X obj 76 210 pack 0 5;
#X obj 302 225 % 100000;
#X obj 302 248 * 0.01;
#X obj 343 166 i;
#X obj 302 273 mtof;
#X obj 302 296 expr 2616256/$f1;
#X obj 302 337 pack 0 0;
#X obj 178 405 *~;
#X obj 134 425 +~;
#X text 87 324 signal bus;
#X obj 178 380 line~;
#X obj 302 361 swap;
#X obj 441 313 + 10000;
#X obj 299 91 unpack 0 0 0 0 0;
#X obj 410 158 i;
#X obj 207 182 r reset;
#X obj 355 424 line~;
#X obj 355 448 tabread4~ sample1;
#X msg 433 398 set \$1;
#X obj 434 214 makefilename sample%d;
#X obj 135 347 inlet~;
#X obj 134 455 outlet~;
#X obj 434 192 div 1e+07;
#X obj 213 98 t b;
#X obj 337 193 t f f;
#X obj 519 324 samplerate~;
#X obj 517 350 * 0.001;
#X obj 299 395 *;
#X msg 585 352 44.1;
#X obj 516 294 t b;
#X obj 521 261 moses 5;
#X connect 0 0 9 0;
#X connect 1 0 7 0;
#X connect 1 0 14 0;
#X connect 2 0 25 0;
#X connect 4 0 5 0;
#X connect 5 0 6 0;
#X connect 5 0 0 0;
#X connect 5 1 24 0;
#X connect 6 0 1 0;
#X connect 6 0 2 0;
#X connect 7 0 8 0;
#X connect 8 0 11 0;
#X connect 9 0 21 0;
#X connect 10 0 21 0;
#X connect 11 0 21 0;
#X connect 12 0 13 0;
#X connect 13 0 15 0;
#X connect 14 0 35 0;
#X connect 15 0 16 0;
#X connect 16 0 17 0;
#X connect 17 0 22 0;
#X connect 18 0 19 1;
#X connect 19 0 32 0;
#X connect 21 0 18 0;
#X connect 22 0 38 0;
#X connect 22 1 27 1;
#X connect 23 0 17 1;
#X connect 24 0 7 1;
#X connect 24 0 34 0;
#X connect 24 1 14 1;
#X connect 24 2 25 1;
#X connect 24 3 11 1;
#X connect 24 4 9 1;
#X connect 25 0 23 0;
#X connect 25 0 38 0;
#X connect 26 0 10 0;
#X connect 27 0 28 0;
#X connect 28 0 18 1;
#X connect 29 0 28 0;
#X connect 30 0 29 0;
#X connect 31 0 19 0;
#X connect 33 0 30 0;
#X connect 33 0 41 0;
#X connect 34 0 1 0;
#X connect 34 0 2 0;
#X connect 34 0 10 0;
#X connect 35 0 12 0;
#X connect 35 1 33 0;
#X connect 36 0 37 0;
#X connect 37 0 38 1;
#X connect 38 0 27 0;
#X connect 39 0 38 1;
#X connect 40 0 36 0;
#X connect 41 0 40 0;
#X connect 41 1 39 0;
#X restore 389 289 pd samp sample1;
#N canvas 0 23 853 672 samp 0;
#X obj 174 87 t b;
#X obj 76 135 del 8;
#X obj 260 138 del 5;
#X text 278 49 velo \, pit \, onset;
#X obj 238 50 inlet;
#X obj 238 71 route 0;
#X msg 103 87 stop;
#X obj 76 165 i;
#X obj 76 188 * 0.003;
#X obj 145 209 pack 0 50;
#X obj 228 211 pack 0 4;
#X obj 76 210 pack 0 5;
#X obj 302 225 % 100000;
#X obj 302 248 * 0.01;
#X obj 343 166 i;
#X obj 302 273 mtof;
#X obj 302 296 expr 2616256/$f1;
#X obj 302 337 pack 0 0;
#X obj 178 405 *~;
#X obj 134 425 +~;
#X text 87 324 signal bus;
#X obj 178 380 line~;
#X obj 302 361 swap;
#X obj 441 313 + 10000;
#X obj 299 91 unpack 0 0 0 0 0;
#X obj 410 158 i;
#X obj 207 182 r reset;
#X obj 355 424 line~;
#X obj 355 448 tabread4~ sample1;
#X msg 433 398 set \$1;
#X obj 434 214 makefilename sample%d;
#X obj 135 347 inlet~;
#X obj 134 455 outlet~;
#X obj 434 192 div 1e+07;
#X obj 213 98 t b;
#X obj 337 193 t f f;
#X obj 519 324 samplerate~;
#X obj 517 350 * 0.001;
#X obj 299 395 *;
#X msg 585 352 44.1;
#X obj 516 294 t b;
#X obj 521 261 moses 5;
#X connect 0 0 9 0;
#X connect 1 0 7 0;
#X connect 1 0 14 0;
#X connect 2 0 25 0;
#X connect 4 0 5 0;
#X connect 5 0 6 0;
#X connect 5 0 0 0;
#X connect 5 1 24 0;
#X connect 6 0 1 0;
#X connect 6 0 2 0;
#X connect 7 0 8 0;
#X connect 8 0 11 0;
#X connect 9 0 21 0;
#X connect 10 0 21 0;
#X connect 11 0 21 0;
#X connect 12 0 13 0;
#X connect 13 0 15 0;
#X connect 14 0 35 0;
#X connect 15 0 16 0;
#X connect 16 0 17 0;
#X connect 17 0 22 0;
#X connect 18 0 19 1;
#X connect 19 0 32 0;
#X connect 21 0 18 0;
#X connect 22 0 38 0;
#X connect 22 1 27 1;
#X connect 23 0 17 1;
#X connect 24 0 7 1;
#X connect 24 0 34 0;
#X connect 24 1 14 1;
#X connect 24 2 25 1;
#X connect 24 3 11 1;
#X connect 24 4 9 1;
#X connect 25 0 23 0;
#X connect 25 0 38 0;
#X connect 26 0 10 0;
#X connect 27 0 28 0;
#X connect 28 0 18 1;
#X connect 29 0 28 0;
#X connect 30 0 29 0;
#X connect 31 0 19 0;
#X connect 33 0 30 0;
#X connect 33 0 41 0;
#X connect 34 0 1 0;
#X connect 34 0 2 0;
#X connect 34 0 10 0;
#X connect 35 0 12 0;
#X connect 35 1 33 0;
#X connect 36 0 37 0;
#X connect 37 0 38 1;
#X connect 38 0 27 0;
#X connect 39 0 38 1;
#X connect 40 0 36 0;
#X connect 41 0 40 0;
#X connect 41 1 39 0;
#X restore 389 313 pd samp sample1;
#N canvas 0 23 853 672 samp 0;
#X obj 174 87 t b;
#X obj 76 135 del 8;
#X obj 260 138 del 5;
#X text 278 49 velo \, pit \, onset;
#X obj 238 50 inlet;
#X obj 238 71 route 0;
#X msg 103 87 stop;
#X obj 76 165 i;
#X obj 76 188 * 0.003;
#X obj 145 209 pack 0 50;
#X obj 228 211 pack 0 4;
#X obj 76 210 pack 0 5;
#X obj 302 225 % 100000;
#X obj 302 248 * 0.01;
#X obj 343 166 i;
#X obj 302 273 mtof;
#X obj 302 296 expr 2616256/$f1;
#X obj 302 337 pack 0 0;
#X obj 178 405 *~;
#X obj 134 425 +~;
#X text 87 324 signal bus;
#X obj 178 380 line~;
#X obj 302 361 swap;
#X obj 441 313 + 10000;
#X obj 299 91 unpack 0 0 0 0 0;
#X obj 410 158 i;
#X obj 207 182 r reset;
#X obj 355 424 line~;
#X obj 355 448 tabread4~ sample1;
#X msg 433 398 set \$1;
#X obj 434 214 makefilename sample%d;
#X obj 135 347 inlet~;
#X obj 134 455 outlet~;
#X obj 434 192 div 1e+07;
#X obj 213 98 t b;
#X obj 337 193 t f f;
#X obj 519 324 samplerate~;
#X obj 517 350 * 0.001;
#X obj 299 395 *;
#X msg 585 352 44.1;
#X obj 516 294 t b;
#X obj 521 261 moses 5;
#X connect 0 0 9 0;
#X connect 1 0 7 0;
#X connect 1 0 14 0;
#X connect 2 0 25 0;
#X connect 4 0 5 0;
#X connect 5 0 6 0;
#X connect 5 0 0 0;
#X connect 5 1 24 0;
#X connect 6 0 1 0;
#X connect 6 0 2 0;
#X connect 7 0 8 0;
#X connect 8 0 11 0;
#X connect 9 0 21 0;
#X connect 10 0 21 0;
#X connect 11 0 21 0;
#X connect 12 0 13 0;
#X connect 13 0 15 0;
#X connect 14 0 35 0;
#X connect 15 0 16 0;
#X connect 16 0 17 0;
#X connect 17 0 22 0;
#X connect 18 0 19 1;
#X connect 19 0 32 0;
#X connect 21 0 18 0;
#X connect 22 0 38 0;
#X connect 22 1 27 1;
#X connect 23 0 17 1;
#X connect 24 0 7 1;
#X connect 24 0 34 0;
#X connect 24 1 14 1;
#X connect 24 2 25 1;
#X connect 24 3 11 1;
#X connect 24 4 9 1;
#X connect 25 0 23 0;
#X connect 25 0 38 0;
#X connect 26 0 10 0;
#X connect 27 0 28 0;
#X connect 28 0 18 1;
#X connect 29 0 28 0;
#X connect 30 0 29 0;
#X connect 31 0 19 0;
#X connect 33 0 30 0;
#X connect 33 0 41 0;
#X connect 34 0 1 0;
#X connect 34 0 2 0;
#X connect 34 0 10 0;
#X connect 35 0 12 0;
#X connect 35 1 33 0;
#X connect 36 0 37 0;
#X connect 37 0 38 1;
#X connect 38 0 27 0;
#X connect 39 0 38 1;
#X connect 40 0 36 0;
#X connect 41 0 40 0;
#X connect 41 1 39 0;
#X restore 389 337 pd samp sample1;
#N canvas 0 23 853 672 samp 0;
#X obj 174 87 t b;
#X obj 76 135 del 8;
#X obj 260 138 del 5;
#X text 278 49 velo \, pit \, onset;
#X obj 238 50 inlet;
#X obj 238 71 route 0;
#X msg 103 87 stop;
#X obj 76 165 i;
#X obj 76 188 * 0.003;
#X obj 145 209 pack 0 50;
#X obj 228 211 pack 0 4;
#X obj 76 210 pack 0 5;
#X obj 302 225 % 100000;
#X obj 302 248 * 0.01;
#X obj 343 166 i;
#X obj 302 273 mtof;
#X obj 302 296 expr 2616256/$f1;
#X obj 302 337 pack 0 0;
#X obj 178 405 *~;
#X obj 134 425 +~;
#X text 87 324 signal bus;
#X obj 178 380 line~;
#X obj 302 361 swap;
#X obj 441 313 + 10000;
#X obj 299 91 unpack 0 0 0 0 0;
#X obj 410 158 i;
#X obj 207 182 r reset;
#X obj 355 424 line~;
#X obj 355 448 tabread4~ sample1;
#X msg 433 398 set \$1;
#X obj 434 214 makefilename sample%d;
#X obj 135 347 inlet~;
#X obj 134 455 outlet~;
#X obj 434 192 div 1e+07;
#X obj 213 98 t b;
#X obj 337 193 t f f;
#X obj 519 324 samplerate~;
#X obj 517 350 * 0.001;
#X obj 299 395 *;
#X msg 585 352 44.1;
#X obj 516 294 t b;
#X obj 521 261 moses 5;
#X connect 0 0 9 0;
#X connect 1 0 7 0;
#X connect 1 0 14 0;
#X connect 2 0 25 0;
#X connect 4 0 5 0;
#X connect 5 0 6 0;
#X connect 5 0 0 0;
#X connect 5 1 24 0;
#X connect 6 0 1 0;
#X connect 6 0 2 0;
#X connect 7 0 8 0;
#X connect 8 0 11 0;
#X connect 9 0 21 0;
#X connect 10 0 21 0;
#X connect 11 0 21 0;
#X connect 12 0 13 0;
#X connect 13 0 15 0;
#X connect 14 0 35 0;
#X connect 15 0 16 0;
#X connect 16 0 17 0;
#X connect 17 0 22 0;
#X connect 18 0 19 1;
#X connect 19 0 32 0;
#X connect 21 0 18 0;
#X connect 22 0 38 0;
#X connect 22 1 27 1;
#X connect 23 0 17 1;
#X connect 24 0 7 1;
#X connect 24 0 34 0;
#X connect 24 1 14 1;
#X connect 24 2 25 1;
#X connect 24 3 11 1;
#X connect 24 4 9 1;
#X connect 25 0 23 0;
#X connect 25 0 38 0;
#X connect 26 0 10 0;
#X connect 27 0 28 0;
#X connect 28 0 18 1;
#X connect 29 0 28 0;
#X connect 30 0 29 0;
#X connect 31 0 19 0;
#X connect 33 0 30 0;
#X connect 33 0 41 0;
#X connect 34 0 1 0;
#X connect 34 0 2 0;
#X connect 34 0 10 0;
#X connect 35 0 12 0;
#X connect 35 1 33 0;
#X connect 36 0 37 0;
#X connect 37 0 38 1;
#X connect 38 0 27 0;
#X connect 39 0 38 1;
#X connect 40 0 36 0;
#X connect 41 0 40 0;
#X connect 41 1 39 0;
#X restore 389 361 pd samp sample1;
#N canvas 255 129 714 470 control_param 0;
#X msg 181 12 bang;
#X obj 305 102 s tto4;
#X floatatom 305 78 0 0 127 0 - - -;
#X floatatom 245 80 0 0 127 0 - - -;
#X obj 245 102 s tto2;
#X obj 25 104 s rwind;
#X obj 97 102 s rfreq;
#X floatatom 97 78 0 0 127 0 - - -;
#X floatatom 25 79 0 0 127 0 - - -;
#X obj 166 102 s rspeed;
#X floatatom 166 77 0 0 127 0 - - -;
#N canvas 0 134 1060 415 killt 0;
#X obj 729 102 s tto4~;
#X obj 632 102 s tto2~;
#X obj 619 50 r tto2;
#X obj 715 50 r tto4;
#X obj 715 183 outlet;
#X obj 715 77 line 0 30;
#X obj 715 134 speedlim 200;
#X msg 715 159 set \$1;
#X msg 616 160 set \$1;
#X obj 618 134 speedlim 200;
#X obj 619 77 line 0 30;
#X obj 615 184 outlet;
#X msg 407 160 set \$1;
#X obj 408 134 speedlim 200;
#X obj 409 77 line 0 30;
#X obj 406 184 outlet;
#X obj 507 77 line 0 30;
#X obj 507 134 speedlim 200;
#X msg 507 159 set \$1;
#X obj 580 186 outlet;
#X obj 507 184 outlet;
#X msg 300 159 set \$1;
#X obj 300 133 speedlim 200;
#X obj 299 75 line 0 30;
#X obj 300 182 outlet;
#X obj 108 183 outlet;
#X obj 202 183 outlet;
#X obj 10 184 outlet;
#X obj 10 75 line 0 30;
#X obj 107 75 line 0 30;
#X obj 204 75 line 0 30;
#X obj 204 134 speedlim 200;
#X obj 108 134 speedlim 200;
#X obj 10 135 speedlim 200;
#X msg 10 160 set \$1;
#X msg 108 160 set \$1;
#X msg 204 159 set \$1;
#X obj 10 49 r ramp;
#X obj 24 103 s ramp~;
#X obj 108 49 r rwind;
#X obj 121 103 s rwind~;
#X obj 204 49 r rfreq;
#X obj 217 103 s rfreq~;
#X obj 300 49 r rmax;
#X obj 314 101 s rmaxr~;
#X obj 409 50 r rspeed;
#X obj 423 102 s rspeed~;
#X obj 507 50 r rthumb;
#X obj 521 104 s rthumb~;
#X obj 14 13 inlet;
#X obj 43 29 s killt;
#X obj 819 18 r killt;
#X msg 819 46 \; ramp 0 \;;
#X obj 887 46 del 200;
#X msg 887 69 \; rmax 127 \; rwind 128 \; rfreq 64 \; rspeed 127 \;
rthumb 0 \; corswi 0 \; in_sw 0 \; tto4 0 \; tto2 0;
#X msg 801 246 \; frog1-sampno 1 \; frog2-sampno 2;
#X floatatom 476 244 5 0 0 0 - - -;
#X connect 2 0 10 0;
#X connect 3 0 5 0;
#X connect 5 0 6 0;
#X connect 5 0 0 0;
#X connect 6 0 7 0;
#X connect 7 0 4 0;
#X connect 8 0 11 0;
#X connect 9 0 8 0;
#X connect 10 0 9 0;
#X connect 10 0 1 0;
#X connect 12 0 15 0;
#X connect 13 0 12 0;
#X connect 14 0 13 0;
#X connect 14 0 46 0;
#X connect 16 0 17 0;
#X connect 16 0 48 0;
#X connect 16 0 56 0;
#X connect 17 0 18 0;
#X connect 18 0 20 0;
#X connect 21 0 24 0;
#X connect 22 0 21 0;
#X connect 23 0 22 0;
#X connect 23 0 44 0;
#X connect 28 0 33 0;
#X connect 28 0 38 0;
#X connect 29 0 32 0;
#X connect 29 0 40 0;
#X connect 30 0 31 0;
#X connect 30 0 42 0;
#X connect 31 0 36 0;
#X connect 32 0 35 0;
#X connect 33 0 34 0;
#X connect 34 0 27 0;
#X connect 35 0 25 0;
#X connect 36 0 26 0;
#X connect 37 0 28 0;
#X connect 39 0 29 0;
#X connect 41 0 30 0;
#X connect 43 0 23 0;
#X connect 45 0 14 0;
#X connect 47 0 16 0;
#X connect 49 0 50 0;
#X connect 51 0 52 0;
#X connect 51 0 53 0;
#X connect 51 0 55 0;
#X connect 53 0 54 0;
#X restore 179 35 pd killt;
#X text 613 43 0=direct;
#X text 472 79 1=no correct;
#X text 617 58 1=rev1;
#X obj 612 126 sel 0 1;
#X floatatom 612 100 0 0 0 0 - - -;
#X obj 612 78 r in_sw;
#X obj 640 152 s inswi1;
#X obj 612 173 s inswi0;
#X obj 537 151 s corswi1;
#X obj 510 172 s corswi0;
#X obj 510 59 r corswi;
#X obj 510 125 sel 0 1;
#X floatatom 510 100 0 0 0 0 - - -;
#N canvas 805 260 635 443 trevor-machine 0;
#X obj 291 286 expr .2*(1950-$i1);
#X floatatom 384 259 0 0 0 0 - - -;
#X obj 383 229 speedlim 200;
#X obj 385 190 expr 6000 + 20 * ($i1-64);
#X obj 385 166 r rfreq~;
#X msg 38 66 stop;
#X obj 38 41 r t-stop~;
#X obj 109 144 del 15;
#X obj 109 120 t b f;
#X obj 109 75 random 10;
#X obj 109 98 + 10;
#X obj 14 108 t b;
#X obj 199 95 * 1535;
#X obj 199 72 inlet;
#X obj 200 374 pack 0 0 50 0 16 16;
#X obj 315 321 r rwind~;
#X obj 200 404 s trev-note-1;
#X obj 200 266 swap;
#X obj 332 137 * 21;
#X obj 332 107 r rspeed~;
#X obj 200 242 / 100;
#X obj 199 167 i;
#X obj 281 168 +;
#X msg 109 362 bang;
#X obj 221 128 print;
#X msg 22 266 \; tplay 1;
#X obj 200 203 fsplit 0 195000;
#X floatatom 421 119 5 0 0 0 - - -;
#X floatatom 472 157 5 0 0 0 - - -;
#X floatatom 388 316 5 0 0 0 - - -;
#X connect 0 0 14 1;
#X connect 2 0 1 0;
#X connect 3 0 17 1;
#X connect 3 0 2 0;
#X connect 4 0 3 0;
#X connect 5 0 7 0;
#X connect 6 0 5 0;
#X connect 7 0 21 0;
#X connect 8 0 7 0;
#X connect 8 1 7 1;
#X connect 9 0 10 0;
#X connect 10 0 8 0;
#X connect 11 0 9 0;
#X connect 12 0 21 0;
#X connect 12 0 24 0;
#X connect 13 0 12 0;
#X connect 14 0 16 0;
#X connect 14 0 23 0;
#X connect 15 0 14 2;
#X connect 15 0 14 4;
#X connect 15 0 14 5;
#X connect 17 0 14 0;
#X connect 17 1 0 0;
#X connect 17 1 14 3;
#X connect 18 0 22 1;
#X connect 19 0 18 0;
#X connect 20 0 17 0;
#X connect 21 0 22 0;
#X connect 21 0 26 0;
#X connect 22 0 21 1;
#X connect 26 0 20 0;
#X connect 26 0 11 0;
#X connect 27 0 18 0;
#X connect 28 0 3 0;
#X connect 29 0 14 5;
#X connect 29 0 14 4;
#X connect 29 0 14 2;
#X restore 462 235 pd trevor-machine;
#X obj 462 208 r tplay;
#X text 17 170 time stretch on;
#N canvas 0 23 497 242 trevor-record 0;
#X floatatom 56 82 0 0 0 0 - - -;
#X obj 56 58 r markov-enable;
#X obj 56 117 s markov-enable~;
#X msg 328 133 2;
#X obj 329 162 s trec2~;
#X obj 173 159 s trec~;
#X msg 174 135 1;
#X obj 244 63 r trec;
#X obj 409 82 r trec2;
#X obj 327 105 gate1;
#X obj 174 109 gate1;
#X obj 195 22 loadbang;
#X msg 195 49 2;
#X connect 0 0 2 0;
#X connect 0 0 9 0;
#X connect 0 0 10 0;
#X connect 1 0 0 0;
#X connect 3 0 4 0;
#X connect 6 0 5 0;
#X connect 7 0 10 1;
#X connect 8 0 9 1;
#X connect 9 0 3 0;
#X connect 10 0 6 0;
#X connect 11 0 12 0;
#X connect 12 0 0 0;
#X restore 461 261 pd trevor-record;
#X text 11 240 time stretch finish;
#X msg 27 266 \; rspeed 128;
#X text 536 17 IGNORE THIS;
#X obj 207 180 r frog1-sampno;
#X msg 207 205 set \$1;
#X floatatom 207 232 0 1 8 0 - - -;
#X obj 207 258 s frog1-sampno;
#X text 35 312 record;
#X msg 33 336 \; trec bang;
#X text 210 156 which sample;
#X msg 202 294 \; read-sample5 my-file.wav;
#X msg 207 335 \; save-sample1 bang;
#X msg 212 387 \; save-sample2 bang;
#X msg 33 196 \; tplay 0;
#X connect 0 0 11 0;
#X connect 2 0 1 0;
#X connect 3 0 4 0;
#X connect 7 0 6 0;
#X connect 8 0 5 0;
#X connect 10 0 9 0;
#X connect 11 1 8 0;
#X connect 11 2 7 0;
#X connect 11 4 10 0;
#X connect 11 7 3 0;
#X connect 11 8 2 0;
#X connect 15 0 19 0;
#X connect 15 1 18 0;
#X connect 16 0 15 0;
#X connect 17 0 16 0;
#X connect 22 0 24 0;
#X connect 23 0 21 0;
#X connect 23 1 20 0;
#X connect 24 0 23 0;
#X connect 26 0 25 0;
#X connect 32 0 33 0;
#X connect 33 0 34 0;
#X connect 34 0 35 0;
#X restore 9 275 pd control_param;
#X obj 407 159 print;
#X obj 407 92 r zits3;
#X floatatom 407 114 0 0 0 0 - - -;
#X obj 282 185 sig~ 0;
#X obj 797 104 r frog2-sampno;
#X obj 769 79 r frog2-dur;
#X obj 740 55 r frog2-vel;
#X obj 711 31 r frog2-pit;
#X obj 711 211 route 1 2 3 4 5 6 7 8;
#N canvas 0 23 989 832 sample_control 0;
#X obj 108 306 % 100;
#X obj 108 283 + 1;
#X obj 210 109 t f f b;
#X text 333 79 duration;
#X obj 351 101 inlet;
#X text 166 70 pitch;
#X obj 209 69 inlet;
#X obj 488 73 inlet;
#X obj 23 383 +;
#X obj 45 308 * 100000;
#X obj 45 281 i;
#X obj 23 335 +;
#X obj 23 258 t f b;
#X obj 257 697 outlet;
#X obj 428 102 inlet;
#X obj 285 99 inlet;
#X text 271 78 velocity;
#X text 395 76 sample number;
#X text 480 40 packed notes -- pitch \, vel \, dur \, onset;
#X obj 430 300 * 1e+07;
#X obj 524 431 == 0;
#X floatatom 525 411 0 0 0 0 - - -;
#X obj 255 407 makenote;
#X obj 477 357 r nosteal;
#X msg 533 389 0;
#X obj 590 366 r reset;
#X msg 589 455 stop;
#X obj 195 567 poly 8 0;
#X obj 289 571 poly 8 1;
#X obj 257 673 pack 0 0 0 0 0 0;
#X obj 394 576 0;
#X obj 430 577 5;
#X obj 453 484 50;
#X obj 488 97 unpack 0 0 0 0 0 0;
#X obj 313 139 expr 2000*exp(0.0577 * (60. - 0.01 * $f1));
#X obj 336 188 min;
#X obj 97 149 fsplit 2100 10700;
#X obj 195 542 gate1;
#X obj 289 545 gate1;
#X obj 568 293 loadbang;
#X msg 569 322 1;
#X connect 0 0 10 1;
#X connect 1 0 0 0;
#X connect 2 0 36 0;
#X connect 2 1 34 0;
#X connect 2 2 32 0;
#X connect 2 2 31 0;
#X connect 2 2 30 0;
#X connect 4 0 35 1;
#X connect 6 0 2 0;
#X connect 7 0 33 0;
#X connect 8 0 22 0;
#X connect 9 0 11 1;
#X connect 10 0 9 0;
#X connect 10 0 1 0;
#X connect 11 0 8 0;
#X connect 12 0 11 0;
#X connect 12 1 10 0;
#X connect 14 0 19 0;
#X connect 15 0 22 1;
#X connect 19 0 8 1;
#X connect 20 0 38 0;
#X connect 21 0 20 0;
#X connect 21 0 37 0;
#X connect 22 0 37 1;
#X connect 22 0 38 1;
#X connect 22 1 27 1;
#X connect 22 1 28 1;
#X connect 23 0 21 0;
#X connect 24 0 21 0;
#X connect 25 0 26 0;
#X connect 25 0 24 0;
#X connect 26 0 27 0;
#X connect 26 0 28 0;
#X connect 27 0 29 0;
#X connect 27 1 29 2;
#X connect 27 2 29 1;
#X connect 28 0 29 0;
#X connect 28 1 29 2;
#X connect 28 2 29 1;
#X connect 29 0 13 0;
#X connect 30 0 29 3;
#X connect 31 0 29 4;
#X connect 32 0 29 5;
#X connect 33 0 36 0;
#X connect 33 1 22 1;
#X connect 33 2 22 2;
#X connect 33 3 29 3;
#X connect 33 4 29 4;
#X connect 33 5 29 5;
#X connect 34 0 35 0;
#X connect 35 0 22 2;
#X connect 36 0 12 0;
#X connect 37 0 27 0;
#X connect 38 0 28 0;
#X connect 39 0 40 0;
#X connect 40 0 21 0;
#X restore 711 188 pd sample_control;
#X obj 930 132 r~ adc;
#X obj 751 626 s~ adc;
#N canvas 0 23 853 672 samp 0;
#X obj 174 87 t b;
#X obj 76 135 del 8;
#X obj 260 138 del 5;
#X text 278 49 velo \, pit \, onset;
#X obj 238 50 inlet;
#X obj 238 71 route 0;
#X msg 103 87 stop;
#X obj 76 165 i;
#X obj 76 188 * 0.003;
#X obj 145 209 pack 0 50;
#X obj 228 211 pack 0 4;
#X obj 76 210 pack 0 5;
#X obj 302 225 % 100000;
#X obj 302 248 * 0.01;
#X obj 343 166 i;
#X obj 302 273 mtof;
#X obj 302 296 expr 2616256/$f1;
#X obj 302 337 pack 0 0;
#X obj 178 405 *~;
#X obj 134 425 +~;
#X text 87 324 signal bus;
#X obj 178 380 line~;
#X obj 302 361 swap;
#X obj 441 313 + 10000;
#X obj 299 91 unpack 0 0 0 0 0;
#X obj 410 158 i;
#X obj 207 182 r reset;
#X obj 355 424 line~;
#X obj 355 448 tabread4~ sample1;
#X msg 433 398 set \$1;
#X obj 434 214 makefilename sample%d;
#X obj 135 347 inlet~;
#X obj 134 455 outlet~;
#X obj 434 192 div 1e+07;
#X obj 213 98 t b;
#X obj 337 193 t f f;
#X obj 519 324 samplerate~;
#X obj 517 350 * 0.001;
#X obj 299 395 *;
#X msg 585 352 44.1;
#X obj 516 294 t b;
#X obj 521 261 moses 5;
#X connect 0 0 9 0;
#X connect 1 0 7 0;
#X connect 1 0 14 0;
#X connect 2 0 25 0;
#X connect 4 0 5 0;
#X connect 5 0 6 0;
#X connect 5 0 0 0;
#X connect 5 1 24 0;
#X connect 6 0 1 0;
#X connect 6 0 2 0;
#X connect 7 0 8 0;
#X connect 8 0 11 0;
#X connect 9 0 21 0;
#X connect 10 0 21 0;
#X connect 11 0 21 0;
#X connect 12 0 13 0;
#X connect 13 0 15 0;
#X connect 14 0 35 0;
#X connect 15 0 16 0;
#X connect 16 0 17 0;
#X connect 17 0 22 0;
#X connect 18 0 19 1;
#X connect 19 0 32 0;
#X connect 21 0 18 0;
#X connect 22 0 38 0;
#X connect 22 1 27 1;
#X connect 23 0 17 1;
#X connect 24 0 7 1;
#X connect 24 0 34 0;
#X connect 24 1 14 1;
#X connect 24 2 25 1;
#X connect 24 3 11 1;
#X connect 24 4 9 1;
#X connect 25 0 23 0;
#X connect 25 0 38 0;
#X connect 26 0 10 0;
#X connect 27 0 28 0;
#X connect 28 0 18 1;
#X connect 29 0 28 0;
#X connect 30 0 29 0;
#X connect 31 0 19 0;
#X connect 33 0 30 0;
#X connect 33 0 41 0;
#X connect 34 0 1 0;
#X connect 34 0 2 0;
#X connect 34 0 10 0;
#X connect 35 0 12 0;
#X connect 35 1 33 0;
#X connect 36 0 37 0;
#X connect 37 0 38 1;
#X connect 38 0 27 0;
#X connect 39 0 38 1;
#X connect 40 0 36 0;
#X connect 41 0 40 0;
#X connect 41 1 39 0;
#X restore 389 389 pd samp sample2;
#N canvas 0 23 853 672 samp 0;
#X obj 174 87 t b;
#X obj 76 135 del 8;
#X obj 260 138 del 5;
#X text 278 49 velo \, pit \, onset;
#X obj 238 50 inlet;
#X obj 238 71 route 0;
#X msg 103 87 stop;
#X obj 76 165 i;
#X obj 76 188 * 0.003;
#X obj 145 209 pack 0 50;
#X obj 228 211 pack 0 4;
#X obj 76 210 pack 0 5;
#X obj 302 225 % 100000;
#X obj 302 248 * 0.01;
#X obj 343 166 i;
#X obj 302 273 mtof;
#X obj 302 296 expr 2616256/$f1;
#X obj 302 337 pack 0 0;
#X obj 178 405 *~;
#X obj 134 425 +~;
#X text 87 324 signal bus;
#X obj 178 380 line~;
#X obj 302 361 swap;
#X obj 441 313 + 10000;
#X obj 299 91 unpack 0 0 0 0 0;
#X obj 410 158 i;
#X obj 207 182 r reset;
#X obj 355 424 line~;
#X obj 355 448 tabread4~ sample1;
#X msg 433 398 set \$1;
#X obj 434 214 makefilename sample%d;
#X obj 135 347 inlet~;
#X obj 134 455 outlet~;
#X obj 434 192 div 1e+07;
#X obj 213 98 t b;
#X obj 337 193 t f f;
#X obj 519 324 samplerate~;
#X obj 517 350 * 0.001;
#X obj 299 395 *;
#X msg 585 352 44.1;
#X obj 516 294 t b;
#X obj 521 261 moses 5;
#X connect 0 0 9 0;
#X connect 1 0 7 0;
#X connect 1 0 14 0;
#X connect 2 0 25 0;
#X connect 4 0 5 0;
#X connect 5 0 6 0;
#X connect 5 0 0 0;
#X connect 5 1 24 0;
#X connect 6 0 1 0;
#X connect 6 0 2 0;
#X connect 7 0 8 0;
#X connect 8 0 11 0;
#X connect 9 0 21 0;
#X connect 10 0 21 0;
#X connect 11 0 21 0;
#X connect 12 0 13 0;
#X connect 13 0 15 0;
#X connect 14 0 35 0;
#X connect 15 0 16 0;
#X connect 16 0 17 0;
#X connect 17 0 22 0;
#X connect 18 0 19 1;
#X connect 19 0 32 0;
#X connect 21 0 18 0;
#X connect 22 0 38 0;
#X connect 22 1 27 1;
#X connect 23 0 17 1;
#X connect 24 0 7 1;
#X connect 24 0 34 0;
#X connect 24 1 14 1;
#X connect 24 2 25 1;
#X connect 24 3 11 1;
#X connect 24 4 9 1;
#X connect 25 0 23 0;
#X connect 25 0 38 0;
#X connect 26 0 10 0;
#X connect 27 0 28 0;
#X connect 28 0 18 1;
#X connect 29 0 28 0;
#X connect 30 0 29 0;
#X connect 31 0 19 0;
#X connect 33 0 30 0;
#X connect 33 0 41 0;
#X connect 34 0 1 0;
#X connect 34 0 2 0;
#X connect 34 0 10 0;
#X connect 35 0 12 0;
#X connect 35 1 33 0;
#X connect 36 0 37 0;
#X connect 37 0 38 1;
#X connect 38 0 27 0;
#X connect 39 0 38 1;
#X connect 40 0 36 0;
#X connect 41 0 40 0;
#X connect 41 1 39 0;
#X restore 389 413 pd samp sample2;
#N canvas 0 23 853 672 samp 0;
#X obj 174 87 t b;
#X obj 76 135 del 8;
#X obj 260 138 del 5;
#X text 278 49 velo \, pit \, onset;
#X obj 238 50 inlet;
#X obj 238 71 route 0;
#X msg 103 87 stop;
#X obj 76 165 i;
#X obj 76 188 * 0.003;
#X obj 145 209 pack 0 50;
#X obj 228 211 pack 0 4;
#X obj 76 210 pack 0 5;
#X obj 302 225 % 100000;
#X obj 302 248 * 0.01;
#X obj 343 166 i;
#X obj 302 273 mtof;
#X obj 302 296 expr 2616256/$f1;
#X obj 302 337 pack 0 0;
#X obj 178 405 *~;
#X obj 134 425 +~;
#X text 87 324 signal bus;
#X obj 178 380 line~;
#X obj 302 361 swap;
#X obj 441 313 + 10000;
#X obj 299 91 unpack 0 0 0 0 0;
#X obj 410 158 i;
#X obj 207 182 r reset;
#X obj 355 424 line~;
#X obj 355 448 tabread4~ sample1;
#X msg 433 398 set \$1;
#X obj 434 214 makefilename sample%d;
#X obj 135 347 inlet~;
#X obj 134 455 outlet~;
#X obj 434 192 div 1e+07;
#X obj 213 98 t b;
#X obj 337 193 t f f;
#X obj 519 324 samplerate~;
#X obj 517 350 * 0.001;
#X obj 299 395 *;
#X msg 585 352 44.1;
#X obj 516 294 t b;
#X obj 521 261 moses 5;
#X connect 0 0 9 0;
#X connect 1 0 7 0;
#X connect 1 0 14 0;
#X connect 2 0 25 0;
#X connect 4 0 5 0;
#X connect 5 0 6 0;
#X connect 5 0 0 0;
#X connect 5 1 24 0;
#X connect 6 0 1 0;
#X connect 6 0 2 0;
#X connect 7 0 8 0;
#X connect 8 0 11 0;
#X connect 9 0 21 0;
#X connect 10 0 21 0;
#X connect 11 0 21 0;
#X connect 12 0 13 0;
#X connect 13 0 15 0;
#X connect 14 0 35 0;
#X connect 15 0 16 0;
#X connect 16 0 17 0;
#X connect 17 0 22 0;
#X connect 18 0 19 1;
#X connect 19 0 32 0;
#X connect 21 0 18 0;
#X connect 22 0 38 0;
#X connect 22 1 27 1;
#X connect 23 0 17 1;
#X connect 24 0 7 1;
#X connect 24 0 34 0;
#X connect 24 1 14 1;
#X connect 24 2 25 1;
#X connect 24 3 11 1;
#X connect 24 4 9 1;
#X connect 25 0 23 0;
#X connect 25 0 38 0;
#X connect 26 0 10 0;
#X connect 27 0 28 0;
#X connect 28 0 18 1;
#X connect 29 0 28 0;
#X connect 30 0 29 0;
#X connect 31 0 19 0;
#X connect 33 0 30 0;
#X connect 33 0 41 0;
#X connect 34 0 1 0;
#X connect 34 0 2 0;
#X connect 34 0 10 0;
#X connect 35 0 12 0;
#X connect 35 1 33 0;
#X connect 36 0 37 0;
#X connect 37 0 38 1;
#X connect 38 0 27 0;
#X connect 39 0 38 1;
#X connect 40 0 36 0;
#X connect 41 0 40 0;
#X connect 41 1 39 0;
#X restore 389 436 pd samp sample2;
#N canvas 0 23 853 672 samp 0;
#X obj 174 87 t b;
#X obj 76 135 del 8;
#X obj 260 138 del 5;
#X text 278 49 velo \, pit \, onset;
#X obj 238 50 inlet;
#X obj 238 71 route 0;
#X msg 103 87 stop;
#X obj 76 165 i;
#X obj 76 188 * 0.003;
#X obj 145 209 pack 0 50;
#X obj 228 211 pack 0 4;
#X obj 76 210 pack 0 5;
#X obj 302 225 % 100000;
#X obj 302 248 * 0.01;
#X obj 343 166 i;
#X obj 302 273 mtof;
#X obj 302 296 expr 2616256/$f1;
#X obj 302 337 pack 0 0;
#X obj 178 405 *~;
#X obj 134 425 +~;
#X text 87 324 signal bus;
#X obj 178 380 line~;
#X obj 302 361 swap;
#X obj 441 313 + 10000;
#X obj 299 91 unpack 0 0 0 0 0;
#X obj 410 158 i;
#X obj 207 182 r reset;
#X obj 355 424 line~;
#X obj 355 448 tabread4~ sample1;
#X msg 433 398 set \$1;
#X obj 434 214 makefilename sample%d;
#X obj 135 347 inlet~;
#X obj 134 455 outlet~;
#X obj 434 192 div 1e+07;
#X obj 213 98 t b;
#X obj 337 193 t f f;
#X obj 519 324 samplerate~;
#X obj 517 350 * 0.001;
#X obj 299 395 *;
#X msg 585 352 44.1;
#X obj 516 294 t b;
#X obj 521 261 moses 5;
#X connect 0 0 9 0;
#X connect 1 0 7 0;
#X connect 1 0 14 0;
#X connect 2 0 25 0;
#X connect 4 0 5 0;
#X connect 5 0 6 0;
#X connect 5 0 0 0;
#X connect 5 1 24 0;
#X connect 6 0 1 0;
#X connect 6 0 2 0;
#X connect 7 0 8 0;
#X connect 8 0 11 0;
#X connect 9 0 21 0;
#X connect 10 0 21 0;
#X connect 11 0 21 0;
#X connect 12 0 13 0;
#X connect 13 0 15 0;
#X connect 14 0 35 0;
#X connect 15 0 16 0;
#X connect 16 0 17 0;
#X connect 17 0 22 0;
#X connect 18 0 19 1;
#X connect 19 0 32 0;
#X connect 21 0 18 0;
#X connect 22 0 38 0;
#X connect 22 1 27 1;
#X connect 23 0 17 1;
#X connect 24 0 7 1;
#X connect 24 0 34 0;
#X connect 24 1 14 1;
#X connect 24 2 25 1;
#X connect 24 3 11 1;
#X connect 24 4 9 1;
#X connect 25 0 23 0;
#X connect 25 0 38 0;
#X connect 26 0 10 0;
#X connect 27 0 28 0;
#X connect 28 0 18 1;
#X connect 29 0 28 0;
#X connect 30 0 29 0;
#X connect 31 0 19 0;
#X connect 33 0 30 0;
#X connect 33 0 41 0;
#X connect 34 0 1 0;
#X connect 34 0 2 0;
#X connect 34 0 10 0;
#X connect 35 0 12 0;
#X connect 35 1 33 0;
#X connect 36 0 37 0;
#X connect 37 0 38 1;
#X connect 38 0 27 0;
#X connect 39 0 38 1;
#X connect 40 0 36 0;
#X connect 41 0 40 0;
#X connect 41 1 39 0;
#X restore 389 460 pd samp sample2;
#N canvas 0 23 853 672 samp 0;
#X obj 174 87 t b;
#X obj 76 135 del 8;
#X obj 260 138 del 5;
#X text 278 49 velo \, pit \, onset;
#X obj 238 50 inlet;
#X obj 238 71 route 0;
#X msg 103 87 stop;
#X obj 76 165 i;
#X obj 76 188 * 0.003;
#X obj 145 209 pack 0 50;
#X obj 228 211 pack 0 4;
#X obj 76 210 pack 0 5;
#X obj 302 225 % 100000;
#X obj 302 248 * 0.01;
#X obj 343 166 i;
#X obj 302 273 mtof;
#X obj 302 296 expr 2616256/$f1;
#X obj 302 337 pack 0 0;
#X obj 178 405 *~;
#X obj 134 425 +~;
#X text 87 324 signal bus;
#X obj 178 380 line~;
#X obj 302 361 swap;
#X obj 441 313 + 10000;
#X obj 299 91 unpack 0 0 0 0 0;
#X obj 410 158 i;
#X obj 207 182 r reset;
#X obj 355 424 line~;
#X obj 355 448 tabread4~ sample1;
#X msg 433 398 set \$1;
#X obj 434 214 makefilename sample%d;
#X obj 135 347 inlet~;
#X obj 134 455 outlet~;
#X obj 434 192 div 1e+07;
#X obj 213 98 t b;
#X obj 337 193 t f f;
#X obj 519 324 samplerate~;
#X obj 517 350 * 0.001;
#X obj 299 395 *;
#X msg 585 352 44.1;
#X obj 516 294 t b;
#X obj 521 261 moses 5;
#X connect 0 0 9 0;
#X connect 1 0 7 0;
#X connect 1 0 14 0;
#X connect 2 0 25 0;
#X connect 4 0 5 0;
#X connect 5 0 6 0;
#X connect 5 0 0 0;
#X connect 5 1 24 0;
#X connect 6 0 1 0;
#X connect 6 0 2 0;
#X connect 7 0 8 0;
#X connect 8 0 11 0;
#X connect 9 0 21 0;
#X connect 10 0 21 0;
#X connect 11 0 21 0;
#X connect 12 0 13 0;
#X connect 13 0 15 0;
#X connect 14 0 35 0;
#X connect 15 0 16 0;
#X connect 16 0 17 0;
#X connect 17 0 22 0;
#X connect 18 0 19 1;
#X connect 19 0 32 0;
#X connect 21 0 18 0;
#X connect 22 0 38 0;
#X connect 22 1 27 1;
#X connect 23 0 17 1;
#X connect 24 0 7 1;
#X connect 24 0 34 0;
#X connect 24 1 14 1;
#X connect 24 2 25 1;
#X connect 24 3 11 1;
#X connect 24 4 9 1;
#X connect 25 0 23 0;
#X connect 25 0 38 0;
#X connect 26 0 10 0;
#X connect 27 0 28 0;
#X connect 28 0 18 1;
#X connect 29 0 28 0;
#X connect 30 0 29 0;
#X connect 31 0 19 0;
#X connect 33 0 30 0;
#X connect 33 0 41 0;
#X connect 34 0 1 0;
#X connect 34 0 2 0;
#X connect 34 0 10 0;
#X connect 35 0 12 0;
#X connect 35 1 33 0;
#X connect 36 0 37 0;
#X connect 37 0 38 1;
#X connect 38 0 27 0;
#X connect 39 0 38 1;
#X connect 40 0 36 0;
#X connect 41 0 40 0;
#X connect 41 1 39 0;
#X restore 389 484 pd samp sample2;
#N canvas 0 23 853 672 samp 0;
#X obj 174 87 t b;
#X obj 76 135 del 8;
#X obj 260 138 del 5;
#X text 278 49 velo \, pit \, onset;
#X obj 238 50 inlet;
#X obj 238 71 route 0;
#X msg 103 87 stop;
#X obj 76 165 i;
#X obj 76 188 * 0.003;
#X obj 145 209 pack 0 50;
#X obj 228 211 pack 0 4;
#X obj 76 210 pack 0 5;
#X obj 302 225 % 100000;
#X obj 302 248 * 0.01;
#X obj 343 166 i;
#X obj 302 273 mtof;
#X obj 302 296 expr 2616256/$f1;
#X obj 302 337 pack 0 0;
#X obj 178 405 *~;
#X obj 134 425 +~;
#X text 87 324 signal bus;
#X obj 178 380 line~;
#X obj 302 361 swap;
#X obj 441 313 + 10000;
#X obj 299 91 unpack 0 0 0 0 0;
#X obj 410 158 i;
#X obj 207 182 r reset;
#X obj 355 424 line~;
#X obj 355 448 tabread4~ sample1;
#X msg 433 398 set \$1;
#X obj 434 214 makefilename sample%d;
#X obj 135 347 inlet~;
#X obj 134 455 outlet~;
#X obj 434 192 div 1e+07;
#X obj 213 98 t b;
#X obj 337 193 t f f;
#X obj 519 324 samplerate~;
#X obj 517 350 * 0.001;
#X obj 299 395 *;
#X msg 585 352 44.1;
#X obj 516 294 t b;
#X obj 521 261 moses 5;
#X connect 0 0 9 0;
#X connect 1 0 7 0;
#X connect 1 0 14 0;
#X connect 2 0 25 0;
#X connect 4 0 5 0;
#X connect 5 0 6 0;
#X connect 5 0 0 0;
#X connect 5 1 24 0;
#X connect 6 0 1 0;
#X connect 6 0 2 0;
#X connect 7 0 8 0;
#X connect 8 0 11 0;
#X connect 9 0 21 0;
#X connect 10 0 21 0;
#X connect 11 0 21 0;
#X connect 12 0 13 0;
#X connect 13 0 15 0;
#X connect 14 0 35 0;
#X connect 15 0 16 0;
#X connect 16 0 17 0;
#X connect 17 0 22 0;
#X connect 18 0 19 1;
#X connect 19 0 32 0;
#X connect 21 0 18 0;
#X connect 22 0 38 0;
#X connect 22 1 27 1;
#X connect 23 0 17 1;
#X connect 24 0 7 1;
#X connect 24 0 34 0;
#X connect 24 1 14 1;
#X connect 24 2 25 1;
#X connect 24 3 11 1;
#X connect 24 4 9 1;
#X connect 25 0 23 0;
#X connect 25 0 38 0;
#X connect 26 0 10 0;
#X connect 27 0 28 0;
#X connect 28 0 18 1;
#X connect 29 0 28 0;
#X connect 30 0 29 0;
#X connect 31 0 19 0;
#X connect 33 0 30 0;
#X connect 33 0 41 0;
#X connect 34 0 1 0;
#X connect 34 0 2 0;
#X connect 34 0 10 0;
#X connect 35 0 12 0;
#X connect 35 1 33 0;
#X connect 36 0 37 0;
#X connect 37 0 38 1;
#X connect 38 0 27 0;
#X connect 39 0 38 1;
#X connect 40 0 36 0;
#X connect 41 0 40 0;
#X connect 41 1 39 0;
#X restore 389 508 pd samp sample2;
#N canvas 0 23 853 672 samp 0;
#X obj 174 87 t b;
#X obj 76 135 del 8;
#X obj 260 138 del 5;
#X text 278 49 velo \, pit \, onset;
#X obj 238 50 inlet;
#X obj 238 71 route 0;
#X msg 103 87 stop;
#X obj 76 165 i;
#X obj 76 188 * 0.003;
#X obj 145 209 pack 0 50;
#X obj 228 211 pack 0 4;
#X obj 76 210 pack 0 5;
#X obj 302 225 % 100000;
#X obj 302 248 * 0.01;
#X obj 343 166 i;
#X obj 302 273 mtof;
#X obj 302 296 expr 2616256/$f1;
#X obj 302 337 pack 0 0;
#X obj 178 405 *~;
#X obj 134 425 +~;
#X text 87 324 signal bus;
#X obj 178 380 line~;
#X obj 302 361 swap;
#X obj 441 313 + 10000;
#X obj 299 91 unpack 0 0 0 0 0;
#X obj 410 158 i;
#X obj 207 182 r reset;
#X obj 355 424 line~;
#X obj 355 448 tabread4~ sample1;
#X msg 433 398 set \$1;
#X obj 434 214 makefilename sample%d;
#X obj 135 347 inlet~;
#X obj 134 455 outlet~;
#X obj 434 192 div 1e+07;
#X obj 213 98 t b;
#X obj 337 193 t f f;
#X obj 519 324 samplerate~;
#X obj 517 350 * 0.001;
#X obj 299 395 *;
#X msg 585 352 44.1;
#X obj 516 294 t b;
#X obj 521 261 moses 5;
#X connect 0 0 9 0;
#X connect 1 0 7 0;
#X connect 1 0 14 0;
#X connect 2 0 25 0;
#X connect 4 0 5 0;
#X connect 5 0 6 0;
#X connect 5 0 0 0;
#X connect 5 1 24 0;
#X connect 6 0 1 0;
#X connect 6 0 2 0;
#X connect 7 0 8 0;
#X connect 8 0 11 0;
#X connect 9 0 21 0;
#X connect 10 0 21 0;
#X connect 11 0 21 0;
#X connect 12 0 13 0;
#X connect 13 0 15 0;
#X connect 14 0 35 0;
#X connect 15 0 16 0;
#X connect 16 0 17 0;
#X connect 17 0 22 0;
#X connect 18 0 19 1;
#X connect 19 0 32 0;
#X connect 21 0 18 0;
#X connect 22 0 38 0;
#X connect 22 1 27 1;
#X connect 23 0 17 1;
#X connect 24 0 7 1;
#X connect 24 0 34 0;
#X connect 24 1 14 1;
#X connect 24 2 25 1;
#X connect 24 3 11 1;
#X connect 24 4 9 1;
#X connect 25 0 23 0;
#X connect 25 0 38 0;
#X connect 26 0 10 0;
#X connect 27 0 28 0;
#X connect 28 0 18 1;
#X connect 29 0 28 0;
#X connect 30 0 29 0;
#X connect 31 0 19 0;
#X connect 33 0 30 0;
#X connect 33 0 41 0;
#X connect 34 0 1 0;
#X connect 34 0 2 0;
#X connect 34 0 10 0;
#X connect 35 0 12 0;
#X connect 35 1 33 0;
#X connect 36 0 37 0;
#X connect 37 0 38 1;
#X connect 38 0 27 0;
#X connect 39 0 38 1;
#X connect 40 0 36 0;
#X connect 41 0 40 0;
#X connect 41 1 39 0;
#X restore 389 532 pd samp sample2;
#N canvas 61 95 853 672 samp 0;
#X obj 174 87 t b;
#X obj 76 135 del 8;
#X obj 260 138 del 5;
#X text 214 5 velo \, pit \, onset;
#X obj 154 7 inlet;
#X obj 154 28 route 0;
#X msg 103 87 stop;
#X obj 76 165 i;
#X obj 76 188 * 0.003;
#X obj 145 209 pack 0 50;
#X obj 228 211 pack 0 4;
#X obj 76 210 pack 0 5;
#X obj 302 225 % 100000;
#X obj 302 248 * 0.01;
#X obj 343 166 i;
#X obj 302 273 mtof;
#X obj 302 296 expr 2616256/$f1;
#X obj 302 337 pack 0 0;
#X obj 178 405 *~;
#X obj 134 425 +~;
#X text 87 324 signal bus;
#X obj 178 380 line~;
#X obj 302 361 swap;
#X obj 441 313 + 10000;
#X obj 240 62 unpack 0 0 0 0 0;
#X obj 410 158 i;
#X obj 207 182 r reset;
#X obj 355 424 line~;
#X obj 355 448 tabread4~ sample1;
#X msg 433 398 set \$1;
#X obj 434 214 makefilename sample%d;
#X obj 135 347 inlet~;
#X obj 134 455 outlet~;
#X obj 434 192 div 1e+07;
#X obj 213 98 t b;
#X obj 337 193 t f f;
#X obj 519 324 samplerate~;
#X obj 517 350 * 0.001;
#X obj 299 395 *;
#X msg 585 352 44.1;
#X obj 516 294 t b;
#X obj 521 261 moses 5;
#X connect 0 0 9 0;
#X connect 1 0 7 0;
#X connect 1 0 14 0;
#X connect 2 0 25 0;
#X connect 4 0 5 0;
#X connect 5 0 6 0;
#X connect 5 0 0 0;
#X connect 5 1 24 0;
#X connect 6 0 1 0;
#X connect 6 0 2 0;
#X connect 7 0 8 0;
#X connect 8 0 11 0;
#X connect 9 0 21 0;
#X connect 10 0 21 0;
#X connect 11 0 21 0;
#X connect 12 0 13 0;
#X connect 13 0 15 0;
#X connect 14 0 35 0;
#X connect 15 0 16 0;
#X connect 16 0 17 0;
#X connect 17 0 22 0;
#X connect 18 0 19 1;
#X connect 19 0 32 0;
#X connect 21 0 18 0;
#X connect 22 0 38 0;
#X connect 22 1 27 1;
#X connect 23 0 17 1;
#X connect 24 0 7 1;
#X connect 24 0 34 0;
#X connect 24 1 14 1;
#X connect 24 2 25 1;
#X connect 24 3 11 1;
#X connect 24 4 9 1;
#X connect 25 0 23 0;
#X connect 25 0 38 0;
#X connect 26 0 10 0;
#X connect 27 0 28 0;
#X connect 28 0 18 1;
#X connect 29 0 28 0;
#X connect 30 0 29 0;
#X connect 31 0 19 0;
#X connect 33 0 30 0;
#X connect 33 0 41 0;
#X connect 34 0 1 0;
#X connect 34 0 2 0;
#X connect 34 0 10 0;
#X connect 35 0 12 0;
#X connect 35 1 33 0;
#X connect 36 0 37 0;
#X connect 37 0 38 1;
#X connect 38 0 27 0;
#X connect 39 0 38 1;
#X connect 40 0 36 0;
#X connect 41 0 40 0;
#X connect 41 1 39 0;
#X restore 389 560 pd samp sample2;
#X obj 387 617 dac~;
#X obj 233 57 env~;
#X floatatom 233 81 5 0 0 0 - - -;
#X msg 1292 318 \; frog2-dur 4000 \; frog2-vel 79 \; frog2-pit 7200
;
#N canvas 722 137 338 547 sampler 0;
#X obj 91 189 openpanel;
#X obj 91 246 soundfiler;
#X obj 91 410 phasor~;
#X obj 91 437 *~;
#X obj 91 314 expr 1 / ( $f1 / 44100 );
#X obj 91 385 sig~;
#X obj 148 410 sig~;
#X obj 125 361 t 0;
#X obj 91 498 outlet~;
#X obj 188 28 bng 15 250 50 0 empty empty empty 17 7 0 10 -262144 -1
-1;
#X text 208 30 Play/Stop;
#X obj 28 437 snapshot~;
#X obj 91 463 tabread4~ Sample_Loop;
#X obj 91 361 f;
#X obj 269 28 tgl 15 0 empty empty empty 17 7 0 10 -262144 -1 -1 0
1;
#X obj 242 314 sel 1 0;
#X msg 28 461 set \$1;
#X text 156 30 Load;
#X msg 91 218 read -maxsize 1e+09 \$1 Sample_Loop;
#N canvas 0 22 450 278 (subpatch) 0;
#X array Sample_Loop 6.00612e+06 float 2;
#X coords 0 1 6.00612e+06 -1 256 64 2 0 0;
#X restore 28 46 graph;
#X obj 31 110 hsl 251 8 0 1 0 0 empty empty empty 0 0 0 10 -262144
-1 -1 1836 0;
#X obj 28 408 metro 20;
#X obj 91 155 t b 0;
#X msg 157 362 1;
#X connect 0 0 18 0;
#X connect 1 0 6 0;
#X connect 1 0 4 0;
#X connect 2 0 3 0;
#X connect 2 0 11 0;
#X connect 3 0 12 0;
#X connect 4 0 13 0;
#X connect 4 0 23 0;
#X connect 5 0 2 0;
#X connect 6 0 3 1;
#X connect 7 0 5 0;
#X connect 9 0 22 0;
#X connect 11 0 16 0;
#X connect 12 0 8 0;
#X connect 13 0 5 0;
#X connect 14 0 15 0;
#X connect 14 0 21 0;
#X connect 15 0 13 0;
#X connect 15 1 7 0;
#X connect 16 0 20 0;
#X connect 18 0 1 0;
#X connect 20 0 2 1;
#X connect 21 0 11 0;
#X connect 22 0 0 0;
#X connect 22 1 2 1;
#X connect 22 1 14 0;
#X connect 23 0 14 0;
#X coords 0 -1 1 1 262 96 2 25 25;
#X restore 751 519 pd sampler;
#X obj 407 137 gate1;
#N canvas 358 140 825 369 markov 0;
#X msg 431 41 \; mark2 stop;
#X msg 431 82 \; mark2 bang;
#X msg 431 125 \; mark2 record;
#X msg 431 166 \; mark2 stoprec;
#X msg 431 209 \; mark2 clear;
#X msg 34 30 \; mark stop;
#X msg 35 66 \; mark bang;
#X msg 36 102 \; mark record;
#X msg 36 144 \; mark stoprec;
#X msg 36 186 \; mark clear;
#X msg 36 230 \; trec bang;
#X msg 430 256 \; trec2 bang;
#X obj 176 32 r trec60;
#X msg 176 59 set \$1;
#X obj 176 110 s trec60;
#X obj 176 88 tgl 15 0 empty empty empty 20 8 0 8 -262144 -1 -1 0 1
;
#X obj 175 157 r ambitus;
#X msg 175 184 set \$1;
#X floatatom 175 212 3 0 127 0 - - -;
#X obj 175 240 s ambitus;
#X msg 567 88 set \$1;
#X obj 567 117 tgl 15 0 empty empty empty 20 8 0 8 -262144 -1 -1 0
1;
#X msg 566 213 set \$1;
#X floatatom 566 241 5 0 0 0 - - -;
#X obj 567 61 r trec602;
#X obj 567 139 s trec602;
#X obj 566 186 r ambitus2;
#X obj 566 269 s ambitus2;
#X obj 276 155 r tto2;
#X msg 276 180 set \$1;
#X floatatom 275 206 3 0 137 0 - - -;
#X obj 239 332 s play1;
#X floatatom 239 303 0 0 137 0 - - -;
#X msg 238 274 60;
#X obj 275 234 s tto2;
#X msg 615 30 \; soundfiler read;
#X text 58 6 --- first chain ---;
#X text 441 8 --- second chain ---;
#X msg 34 274 \; mark restart 1;
#X msg 34 311 \; mark restart 0;
#X floatatom 379 310 0 0 137 0 - - -;
#X msg 378 281 60;
#X obj 379 339 s play2;
#X connect 12 0 13 0;
#X connect 13 0 15 0;
#X connect 15 0 14 0;
#X connect 16 0 17 0;
#X connect 17 0 18 0;
#X connect 18 0 19 0;
#X connect 20 0 21 0;
#X connect 21 0 25 0;
#X connect 22 0 23 0;
#X connect 23 0 27 0;
#X connect 24 0 20 0;
#X connect 26 0 22 0;
#X connect 28 0 29 0;
#X connect 29 0 30 0;
#X connect 30 0 34 0;
#X connect 32 0 31 0;
#X connect 33 0 32 0;
#X connect 40 0 42 0;
#X connect 41 0 40 0;
#X restore 16 228 pd markov;
#N canvas 0 23 1010 669 metro 0;
#X obj 301 112 r godel;
#X obj 301 135 unpack 0 0 0;
#X obj 233 57 r stopdel;
#X obj 184 192 metro 1577;
#X obj 183 346 s frog1;
#X obj 183 284 metro 1512;
#X obj 183 236 metro 1294;
#X obj 164 55 r reset;
#X msg 164 77 stop;
#X obj 108 264 del 184;
#X obj 107 173 del 145;
#X obj 107 217 del 184;
#X msg 92 119 bang;
#X floatatom 187 152 0 0 0 0 - - -;
#X obj 185 122 r stopmetro2;
#X msg 183 310 6000 80 \;;
#X obj 498 98 r hoppy-frog;
#X obj 541 267 del;
#X obj 498 143 route 0;
#X obj 562 176 t b f;
#X obj 474 224 t b;
#X msg 474 177 stop;
#X msg 732 186 \; hoppy-frog 0 \;;
#X msg 743 143 \; hoppy-frog 130 10 \;;
#X floatatom 586 234 5 0 0 0 - - -;
#X msg 740 98 \; hoppy-frog 80 40 \;;
#X obj 612 304 random;
#X obj 542 292 t b b;
#X obj 550 206 random;
#X obj 551 232 +;
#X floatatom 611 207 5 0 0 0 - - -;
#X floatatom 550 401 5 0 0 0 - - -;
#X obj 514 373 random;
#X obj 515 399 +;
#X floatatom 575 374 5 0 0 0 - - -;
#X obj 583 149 unpack 0 0 0 0 0 0;
#X floatatom 682 417 5 0 0 0 - - -;
#X obj 646 387 random;
#X obj 647 413 +;
#X floatatom 707 388 5 0 0 0 - - -;
#X obj 516 446 pack 0 0;
#X msg 515 482 \; frog1-dur \$2 \; frog1 6000 \$1 \;;
#X text 518 64 THIS ISN'T IN USE.;
#X obj 349 182 r godel1;
#X obj 344 229 r godel2;
#X obj 342 292 r godel3;
#X floatatom 342 315 5 0 0 0 - - -;
#X floatatom 344 253 5 0 0 0 - - -;
#X floatatom 349 204 5 0 0 0 - - -;
#X obj 254 353 s frog2;
#X connect 0 0 1 0;
#X connect 1 0 12 0;
#X connect 1 0 3 1;
#X connect 1 1 6 1;
#X connect 1 2 5 1;
#X connect 2 0 8 0;
#X connect 3 0 15 0;
#X connect 5 0 15 0;
#X connect 6 0 15 0;
#X connect 7 0 8 0;
#X connect 8 0 10 0;
#X connect 8 0 11 0;
#X connect 8 0 9 0;
#X connect 9 0 5 0;
#X connect 10 0 11 0;
#X connect 10 0 3 0;
#X connect 11 0 9 0;
#X connect 11 0 6 0;
#X connect 12 0 10 0;
#X connect 13 0 3 0;
#X connect 13 0 6 0;
#X connect 13 0 5 0;
#X connect 14 0 13 0;
#X connect 15 0 4 0;
#X connect 15 0 49 0;
#X connect 16 0 18 0;
#X connect 17 0 20 0;
#X connect 17 0 27 0;
#X connect 18 0 21 0;
#X connect 18 1 35 0;
#X connect 19 0 28 0;
#X connect 19 1 24 0;
#X connect 20 0 28 0;
#X connect 21 0 17 0;
#X connect 24 0 29 1;
#X connect 27 0 32 0;
#X connect 27 1 37 0;
#X connect 28 0 29 0;
#X connect 29 0 17 0;
#X connect 30 0 28 1;
#X connect 31 0 33 1;
#X connect 32 0 33 0;
#X connect 33 0 40 0;
#X connect 34 0 32 1;
#X connect 35 0 19 0;
#X connect 35 1 30 0;
#X connect 35 2 31 0;
#X connect 35 3 34 0;
#X connect 35 4 36 0;
#X connect 35 5 39 0;
#X connect 36 0 38 1;
#X connect 37 0 38 0;
#X connect 38 0 40 1;
#X connect 39 0 37 1;
#X connect 40 0 41 0;
#X connect 43 0 48 0;
#X connect 44 0 47 0;
#X connect 45 0 46 0;
#X restore 18 203 pd metro;
#N canvas 104 23 874 682 markov1 0;
#X floatatom 410 196 0 0 0 0 - - -;
#X msg 540 189 bang;
#X obj 70 534 r frog1;
#X floatatom 31 136 0 0 0 0 - - -;
#X msg 31 159 restart \$1;
#X msg 21 30 1000;
#X msg 21 53 4000;
#X floatatom 21 74 0 0 0 0 - - -;
#X msg 22 100 set \$1;
#X msg 31 225 stop \, restart 0;
#X obj 31 200 r reset;
#X msg 83 27 50;
#X msg 83 51 100;
#X floatatom 83 72 0 0 0 0 - - -;
#X msg 84 99 maxdiff \$1;
#X obj 163 201 snarkov;
#X obj 254 188 r markdur;
#X floatatom 254 213 0 0 0 0 - - -;
#X obj 315 326 * 128;
#X obj 315 351 +;
#X obj 315 375 >> 7;
#X msg 315 279 6300;
#X msg 301 32 print;
#X msg 301 145 bang;
#X msg 301 124 clear;
#X msg 301 57 record;
#X msg 301 82 stoprec;
#X msg 301 103 stop;
#X text 311 9 MARKOV1;
#X obj 364 274 * 100;
#X obj 364 301 * 0;
#X obj 447 365 swap 128;
#X obj 447 391 -;
#X obj 411 45 r gateamb;
#X floatatom 411 70 0 0 0 0 - - -;
#X obj 411 172 line 0 20;
#X obj 424 147 r ambitus;
#X floatatom 524 369 0 0 0 0 - - -;
#X msg 523 51 0;
#X obj 523 16 r reset;
#X obj 559 127 sel 60;
#X obj 559 151 s trec;
#X floatatom 559 70 0 0 0 0 - - -;
#X obj 559 42 r trec60;
#X obj 602 79 r ichiro;
#X obj 101 251 s stab;
#X obj 218 248 * 1;
#X obj 226 272 r lego1;
#X obj 315 253 t b f;
#X obj 76 618 s frog1-pit;
#X obj 214 301 s frog1-dur;
#X obj 84 458 s frog1-vel;
#X obj 90 586 unpack;
#X obj 90 558 r frogo1;
#X obj 331 477 del 200;
#X msg 330 507 0;
#X msg 407 477 1;
#X msg 333 447 bang;
#X obj 450 523 print;
#X msg 658 323 \; frog1-dur 2000 \; frog1-vel 64 \; frog1-pit \$1;
#X obj 588 192 print record;
#X obj 542 568 metro 100;
#X floatatom 541 545 0 0 0 0 - - -;
#X floatatom 600 541 0 0 0 0 - - -;
#X obj 179 94 r packednotes;
#X obj 209 69 r mark;
#X obj 146 44 r markov-enable~;
#X obj 543 490 r reset;
#X msg 543 517 0;
#X msg 683 35 \; ambitus 127;
#X obj 412 123 tabread amb1.t;
#X obj 659 268 r play1;
#X obj 659 296 * 100;
#X obj 666 441 * 100;
#X obj 666 413 r play2;
#X msg 665 468 \; frog2-dur 2000 \; frog2-vel 64 \; frog2-pit \$1;
#X floatatom 180 373 0 0 0 0 - - -;
#X obj 180 346 r markvelrand;
#X obj 131 401 random;
#X obj 131 427 -;
#X obj 190 402 / 2;
#X obj 116 370 t f b;
#X obj 84 431 +;
#X obj 143 320 r reset;
#X msg 143 343 0;
#X obj 300 411 s frog1-pit;
#X obj 61 643 s frog1-vel;
#X msg 536 606 \; frog1-dur 2000 \; frog1-vel 127 \; frog1-pit 6300
;
#X obj 411 99 gate1;
#X obj 559 104 gate1;
#X obj 446 498 gate1;
#X obj 147 69 gate1;
#X connect 0 0 31 0;
#X connect 0 0 37 0;
#X connect 0 0 30 1;
#X connect 1 0 41 0;
#X connect 2 0 52 0;
#X connect 3 0 4 0;
#X connect 4 0 15 0;
#X connect 5 0 7 0;
#X connect 6 0 7 0;
#X connect 7 0 8 0;
#X connect 8 0 15 0;
#X connect 9 0 15 0;
#X connect 10 0 9 0;
#X connect 11 0 13 0;
#X connect 12 0 13 0;
#X connect 13 0 14 0;
#X connect 14 0 15 0;
#X connect 15 0 45 0;
#X connect 15 0 48 0;
#X connect 15 1 81 0;
#X connect 15 2 46 0;
#X connect 16 0 17 0;
#X connect 17 0 46 1;
#X connect 18 0 19 0;
#X connect 19 0 20 0;
#X connect 20 0 85 0;
#X connect 20 0 90 1;
#X connect 21 0 18 0;
#X connect 22 0 15 0;
#X connect 23 0 15 0;
#X connect 24 0 15 0;
#X connect 25 0 15 0;
#X connect 26 0 15 0;
#X connect 27 0 15 0;
#X connect 29 0 30 0;
#X connect 30 0 19 1;
#X connect 31 0 32 0;
#X connect 31 1 32 1;
#X connect 32 0 18 1;
#X connect 33 0 34 0;
#X connect 34 0 88 0;
#X connect 35 0 0 0;
#X connect 36 0 35 0;
#X connect 38 0 42 0;
#X connect 38 0 34 0;
#X connect 39 0 38 0;
#X connect 39 0 69 0;
#X connect 40 0 41 0;
#X connect 40 0 60 0;
#X connect 42 0 89 0;
#X connect 43 0 42 0;
#X connect 44 0 88 1;
#X connect 44 0 89 1;
#X connect 46 0 50 0;
#X connect 47 0 50 0;
#X connect 48 0 21 0;
#X connect 48 1 29 0;
#X connect 52 0 49 0;
#X connect 52 1 86 0;
#X connect 53 0 52 0;
#X connect 54 0 55 0;
#X connect 55 0 90 0;
#X connect 56 0 90 0;
#X connect 57 0 54 0;
#X connect 57 0 56 0;
#X connect 61 0 87 0;
#X connect 62 0 61 0;
#X connect 63 0 61 1;
#X connect 64 0 15 0;
#X connect 65 0 91 1;
#X connect 66 0 91 0;
#X connect 67 0 68 0;
#X connect 68 0 62 0;
#X connect 70 0 35 0;
#X connect 71 0 72 0;
#X connect 72 0 59 0;
#X connect 73 0 75 0;
#X connect 74 0 73 0;
#X connect 76 0 78 1;
#X connect 76 0 80 0;
#X connect 77 0 76 0;
#X connect 78 0 79 0;
#X connect 79 0 82 1;
#X connect 80 0 79 1;
#X connect 81 0 82 0;
#X connect 81 1 78 0;
#X connect 82 0 51 0;
#X connect 83 0 84 0;
#X connect 84 0 76 0;
#X connect 88 0 70 0;
#X connect 89 0 40 0;
#X connect 90 0 58 0;
#X connect 91 0 15 0;
#X restore 17 182 pd markov1;
#N canvas 103 23 613 462 markov2 0;
#X obj 131 346 print;
#X obj 18 285 unpack;
#X obj 72 243 r frog2;
#X obj 11 243 r frogo2;
#X obj 51 389 s frog2-vel;
#X obj 210 389 s frog2-dur;
#X obj 244 367 s frog2-pit;
#X obj 5 183 r reset;
#X msg 5 206 stop \, restart 0;
#X msg 5 89 set \$1;
#X floatatom 5 71 0 0 0 0 - - -;
#X msg 5 52 4000;
#X msg 5 35 1000;
#X msg 5 146 restart \$1;
#X floatatom 5 125 0 0 0 0 - - -;
#X msg 53 91 maxdiff \$1;
#X floatatom 53 73 0 0 0 0 - - -;
#X msg 53 55 100;
#X msg 53 36 50;
#X obj 124 184 snarkov;
#X obj 124 33 r mark2;
#X obj 139 56 r packednotes;
#X floatatom 198 202 0 0 0 0 - - -;
#X obj 198 180 r markdur2;
#X obj 244 343 >> 7;
#X obj 244 321 +;
#X obj 244 299 * 128;
#X msg 244 256 6300;
#X msg 250 40 print;
#X msg 251 95 stop;
#X msg 251 77 stoprec;
#X msg 251 58 record;
#X msg 251 114 clear;
#X msg 251 133 bang;
#X text 259 19 MARKOV2;
#X obj 287 276 * 0;
#X obj 287 251 * 100;
#X floatatom 310 55 0 0 0 0 - - -;
#X floatatom 383 180 0 0 0 0 - - -;
#X obj 383 357 -;
#X obj 383 333 swap 128;
#X obj 384 158 line 0 20;
#X floatatom 384 66 0 0 0 0 - - -;
#X obj 384 42 r gateamb2;
#X floatatom 450 327 0 0 0 0 - - -;
#X obj 477 18 r reset;
#X msg 477 50 0;
#X obj 527 45 r trec602;
#X floatatom 524 72 0 0 0 0 - - -;
#X obj 527 144 s trec2;
#X obj 527 122 sel 60;
#X obj 555 76 r ichiro;
#X obj 191 256 r lego2;
#X obj 175 227 * 1;
#X text 122 369 sampler 2;
#X obj 244 232 t b f;
#X obj 401 137 r ambitus2;
#X obj 385 117 tabread amb1.t;
#X obj 384 91 gate1;
#X obj 527 101 gate1;
#X connect 1 0 6 0;
#X connect 1 1 4 0;
#X connect 2 0 1 0;
#X connect 3 0 1 0;
#X connect 7 0 8 0;
#X connect 8 0 19 0;
#X connect 9 0 19 0;
#X connect 10 0 9 0;
#X connect 11 0 10 0;
#X connect 12 0 10 0;
#X connect 13 0 19 0;
#X connect 14 0 13 0;
#X connect 15 0 19 0;
#X connect 16 0 15 0;
#X connect 17 0 16 0;
#X connect 18 0 16 0;
#X connect 19 0 55 0;
#X connect 19 1 4 0;
#X connect 19 2 53 0;
#X connect 20 0 19 0;
#X connect 21 0 19 0;
#X connect 22 0 53 1;
#X connect 23 0 22 0;
#X connect 24 0 6 0;
#X connect 25 0 24 0;
#X connect 26 0 25 0;
#X connect 27 0 26 0;
#X connect 28 0 19 0;
#X connect 29 0 19 0;
#X connect 30 0 19 0;
#X connect 31 0 19 0;
#X connect 32 0 19 0;
#X connect 33 0 19 0;
#X connect 35 0 25 1;
#X connect 36 0 35 0;
#X connect 37 0 22 0;
#X connect 38 0 35 1;
#X connect 38 0 44 0;
#X connect 38 0 40 0;
#X connect 39 0 26 1;
#X connect 40 0 39 0;
#X connect 40 1 39 1;
#X connect 41 0 38 0;
#X connect 42 0 58 0;
#X connect 43 0 42 0;
#X connect 45 0 46 0;
#X connect 46 0 42 0;
#X connect 46 0 48 0;
#X connect 47 0 48 0;
#X connect 48 0 59 0;
#X connect 50 0 49 0;
#X connect 51 0 58 1;
#X connect 51 0 59 1;
#X connect 52 0 5 0;
#X connect 53 0 5 0;
#X connect 55 0 27 0;
#X connect 55 1 36 0;
#X connect 56 0 41 0;
#X connect 57 0 41 0;
#X connect 58 0 57 0;
#X connect 59 0 50 0;
#X restore 17 160 pd markov2;
#N canvas 102 224 870 355 sequencer 0;
#X text 559 26 same for sampler 2;
#X obj 602 64 r startseq2;
#X obj 714 219 s frogo2;
#X obj 714 143 r seqpit2;
#X msg 714 195 \$1 76;
#X obj 546 226 t f f;
#X obj 485 255 != 0;
#X obj 485 276 sel 1;
#X obj 485 303 del 10;
#X obj 77 264 del 10;
#X obj 77 221 != 0;
#X obj 77 242 sel 1;
#X msg 428 238 stop;
#X obj 427 211 r reset;
#X obj 393 190 r stopseq;
#X obj 8 197 r reset;
#X msg 8 220 stop;
#X obj 125 174 t f f;
#X text 268 231 send to sampler;
#X text 366 120 to pitch table;
#X obj 276 120 r seqpit;
#X obj 587 133 i;
#X obj 623 135 + 1;
#X obj 175 92 + 1;
#X obj 135 88 i;
#X text 245 43 bang here to start;
#X obj 192 21 r startseq;
#X msg 276 167 \$1 76;
#X obj 276 188 s frogo1;
#X obj 481 145 r seqtim2;
#X obj 42 129 r seqtim;
#X text 51 49 to time table;
#X obj 125 149 tabread seqtim.t;
#X obj 276 144 tabread seqpit.t;
#X obj 546 201 tabread seqtim2.t;
#X obj 714 167 tabread seqpit2.t;
#X msg 193 45 0;
#X msg 602 90 0;
#X obj 631 175 + 1;
#X connect 1 0 37 0;
#X connect 3 0 35 0;
#X connect 4 0 2 0;
#X connect 5 0 6 0;
#X connect 5 1 8 1;
#X connect 6 0 7 0;
#X connect 7 0 8 0;
#X connect 8 0 21 0;
#X connect 9 0 24 0;
#X connect 10 0 11 0;
#X connect 11 0 9 0;
#X connect 12 0 8 0;
#X connect 13 0 12 0;
#X connect 14 0 16 0;
#X connect 14 0 12 0;
#X connect 15 0 16 0;
#X connect 16 0 9 0;
#X connect 17 0 10 0;
#X connect 17 1 9 1;
#X connect 20 0 33 0;
#X connect 21 0 22 0;
#X connect 21 0 35 0;
#X connect 22 0 21 1;
#X connect 22 0 34 0;
#X connect 23 0 24 1;
#X connect 23 0 32 0;
#X connect 24 0 23 0;
#X connect 24 0 33 0;
#X connect 26 0 36 0;
#X connect 27 0 28 0;
#X connect 29 0 34 0;
#X connect 30 0 32 0;
#X connect 32 0 17 0;
#X connect 33 0 27 0;
#X connect 34 0 5 0;
#X connect 35 0 4 0;
#X connect 36 0 24 0;
#X connect 37 0 21 0;
#X restore 13 134 pd sequencer;
#X msg 1126 544 \; stopmetro2 0;
#X msg 1127 446 \; frog1-dur 2100 \; frog1-vel 127 \; frog1-pit 6000
\; godel 500 647 784 \; stopmetro2 1;
#X msg 1270 452 \; trec bang;
#X connect 9 0 10 0;
#X connect 12 0 33 0;
#X connect 13 0 38 0;
#X connect 14 0 37 0;
#X connect 15 0 36 0;
#X connect 16 0 35 0;
#X connect 17 0 16 0;
#X connect 17 1 15 0;
#X connect 17 2 14 0;
#X connect 17 3 13 0;
#X connect 19 0 29 0;
#X connect 19 0 32 0;
#X connect 20 0 27 0;
#X connect 20 0 31 0;
#X connect 21 0 19 0;
#X connect 22 0 21 0;
#X connect 23 0 17 0;
#X connect 23 0 33 0;
#X connect 24 0 17 0;
#X connect 24 0 18 0;
#X connect 25 0 26 0;
#X connect 26 0 20 0;
#X connect 27 0 28 0;
#X connect 28 0 20 1;
#X connect 29 0 30 0;
#X connect 30 0 19 1;
#X connect 31 0 23 0;
#X connect 32 0 24 0;
#X connect 39 0 46 0;
#X connect 39 0 80 1;
#X connect 40 0 39 2;
#X connect 41 0 39 1;
#X connect 42 0 39 0;
#X connect 43 0 39 3;
#X connect 44 0 39 4;
#X connect 45 0 47 0;
#X connect 46 0 45 1;
#X connect 46 1 47 1;
#X connect 46 2 48 1;
#X connect 46 3 49 1;
#X connect 46 4 50 1;
#X connect 46 5 51 1;
#X connect 46 6 52 1;
#X connect 46 7 53 1;
#X connect 47 0 48 0;
#X connect 48 0 49 0;
#X connect 49 0 50 0;
#X connect 50 0 51 0;
#X connect 51 0 52 0;
#X connect 52 0 53 0;
#X connect 53 0 67 0;
#X connect 56 0 57 0;
#X connect 57 0 80 0;
#X connect 58 0 45 0;
#X connect 59 0 64 3;
#X connect 60 0 64 2;
#X connect 61 0 64 1;
#X connect 62 0 64 0;
#X connect 63 0 67 1;
#X connect 63 1 68 1;
#X connect 63 2 69 1;
#X connect 63 3 70 1;
#X connect 63 4 71 1;
#X connect 63 5 72 1;
#X connect 63 6 73 1;
#X connect 63 7 74 1;
#X connect 64 0 63 0;
#X connect 65 0 35 0;
#X connect 65 0 36 0;
#X connect 65 0 37 0;
#X connect 65 0 38 0;
#X connect 67 0 68 0;
#X connect 68 0 69 0;
#X connect 69 0 70 0;
#X connect 70 0 71 0;
#X connect 71 0 72 0;
#X connect 72 0 73 0;
#X connect 73 0 74 0;
#X connect 74 0 75 0;
#X connect 74 0 75 1;
#X connect 76 0 77 0;
#X connect 79 0 66 0;
#X connect 79 0 75 0;
#X connect 79 0 75 1;
#X connect 80 0 55 0;
