#N canvas 424 25 988 764 12;
#X obj 62 332 sig~;
#X obj 207 263 inlet;
#X obj 244 452 *~, f 11;
#X obj 472 465 *~, f 23;
#X obj 323 146 maximum 1;
#X obj 323 168 !/ 1000;
#X text 387 169 ms to hertz;
#X obj 323 199 osc~ 1;
#X obj 323 228 *~ 0.5;
#X obj 323 255 +~ 0.5;
#X obj 323 121 inlet;
#X obj 701 116 inlet;
#X floatatom 701 140 5 0 0 0 - - -;
#X obj 703 335 line~ 0, f 10;
#X obj 243 500 +~, f 33;
#X floatatom 63 307 5 0 0 0 - - -;
#X floatatom 433 112 5 0 0 0 - - -;
#X obj 546 355 !-~ 1;
#X obj 62 365 samphold~ 0.0001;
#X obj 472 387 samphold~ 0.0001;
#X obj 703 287 clip 0 0.99;
#X obj 704 311 list append 20;
#X msg 791 206 0;
#X msg 836 207 0.78;
#X obj 704 432 *~, f 8;
#X text 43 241 entrada de áudio;
#X text 200 242 del time;
#X text 430 91 window;
#X text 693 96 feedback;
#X floatatom 206 296 5 0 0 0 - - -;
#X obj 244 531 send~ \$2_hoaProc_Out_\$1;
#X obj 470 429 delread4~ \$1_syn.del;
#X obj 244 417 delread4~ \$1_syn.del;
#X obj 402 269 delwrite~ \$1_syn.del 5000;
#X obj 402 246 receive~ \$2_hoaProc_In_\$1;
#X connect 0 0 18 0;
#X connect 0 0 19 0;
#X connect 1 0 0 0;
#X connect 1 0 29 0;
#X connect 2 0 14 0;
#X connect 3 0 14 1;
#X connect 4 0 5 0;
#X connect 5 0 7 0;
#X connect 7 0 8 0;
#X connect 8 0 9 0;
#X connect 9 0 2 1;
#X connect 9 0 17 0;
#X connect 9 0 18 1;
#X connect 10 0 4 0;
#X connect 11 0 12 0;
#X connect 12 0 20 0;
#X connect 13 0 24 0;
#X connect 14 0 24 1;
#X connect 14 0 30 0;
#X connect 15 0 0 0;
#X connect 16 0 4 0;
#X connect 17 0 3 1;
#X connect 17 0 19 1;
#X connect 18 0 32 0;
#X connect 19 0 31 0;
#X connect 20 0 21 0;
#X connect 21 0 13 0;
#X connect 22 0 20 0;
#X connect 23 0 20 0;
#X connect 24 0 33 0;
#X connect 31 0 3 0;
#X connect 32 0 2 0;
#X connect 34 0 33 0;
