#N canvas 421 102 498 578 10;
#X obj 85 124 list length;
#X obj 311 32 array define \$0-buffer;
#X obj 85 147 array size \$0-buffer;
#X obj 69 170 array set \$0-buffer;
#X obj 53 193 \$1;
#X obj 53 216 moses;
#X obj 53 239 t b b;
#X obj 53 331 array size \$0-buffer;
#X obj 53 354 until;
#X obj 38 492 list store;
#X obj 38 32 inlet;
#X obj 38 55 list;
#X obj 38 78 t b b l l b;
#X msg 53 469 append \$1;
#X obj 336 515 array set \$0-buffer;
#X obj 336 492 f;
#X obj 38 515 outlet;
#X obj 194 492 list store;
#X obj 194 515 outlet;
#X msg 194 469 append \$1;
#X obj 38 423 t b b;
#X obj 101 101 s \$0-reset;
#X obj 125 469 r \$0-reset;
#X obj 261 469 r \$0-reset;
#X obj 270 262 array max \$0-buffer;
#X obj 243 239 t b b;
#X obj 270 285 + 1;
#X obj 243 331 array size \$0-buffer;
#X obj 243 354 until;
#X obj 243 377 array min \$0-buffer;
#X obj 80 262 array min \$0-buffer;
#X obj 80 285 - 1;
#X obj 53 377 array max \$0-buffer;
#X obj 80 308 s \$0-kill;
#X obj 270 308 s \$0-kill;
#X obj 381 469 r \$0-kill;
#X obj 53 400 s \$0-value;
#X obj 336 469 t b f;
#X obj 164 400 s \$0-index;
#X obj 243 400 s \$0-value;
#X obj 354 400 s \$0-index;
#X obj 53 446 r \$0-value;
#X obj 194 446 r \$0-index;
#X obj 336 446 r \$0-index;
#X obj 158 32 inlet;
#X connect 0 0 2 0;
#X connect 4 0 5 0;
#X connect 5 0 6 0;
#X connect 5 1 25 0;
#X connect 6 0 7 0;
#X connect 6 1 30 0;
#X connect 7 0 8 0;
#X connect 8 0 32 0;
#X connect 9 0 16 0;
#X connect 10 0 11 0;
#X connect 11 0 12 0;
#X connect 12 0 20 0;
#X connect 12 1 4 0;
#X connect 12 2 3 0;
#X connect 12 3 0 0;
#X connect 12 4 21 0;
#X connect 13 0 9 0;
#X connect 15 0 14 0;
#X connect 17 0 18 0;
#X connect 19 0 17 0;
#X connect 20 0 9 0;
#X connect 20 1 17 0;
#X connect 22 0 9 1;
#X connect 23 0 17 1;
#X connect 24 0 26 0;
#X connect 25 0 27 0;
#X connect 25 1 24 0;
#X connect 26 0 34 0;
#X connect 27 0 28 0;
#X connect 28 0 29 0;
#X connect 29 0 39 0;
#X connect 29 1 40 0;
#X connect 30 0 31 0;
#X connect 31 0 33 0;
#X connect 32 0 36 0;
#X connect 32 1 38 0;
#X connect 35 0 15 1;
#X connect 37 0 15 0;
#X connect 37 1 14 1;
#X connect 41 0 13 0;
#X connect 42 0 19 0;
#X connect 43 0 37 0;
#X connect 44 0 4 1;
